<?xml version="1.0" encoding="utf-8"?>
<!-- Generator: Adobe Illustrator 15.0.0, SVG Export Plug-In . SVG Version: 6.00 Build 0)  -->
<!DOCTYPE svg PUBLIC "-//W3C//DTD SVG 1.1//EN" "http://www.w3.org/Graphics/SVG/1.1/DTD/svg11.dtd">
<svg version="1.1" id="Layer_1" xmlns="http://www.w3.org/2000/svg" xmlns:xlink="http://www.w3.org/1999/xlink" x="0px" y="0px"
	 width="1000px" height="1000px" viewBox="7 161 60 60" enable-background="new 7 161 60 60" xml:space="preserve">


<g>
	
	<g>
		<g>
			<path fill="#fff" d="M50.79,206.969c-3.794,3.357-8.772,5.398-14.237,5.398c-11.873,0-21.498-9.627-21.498-21.5
				s9.625-21.5,21.498-21.5s21.498,9.627,21.498,21.5c0,3.16-0.688,6.16-1.914,8.859c1.081,0.785,3.118,2.486,5.119,5.379
				c2.422-4.193,3.813-9.051,3.813-14.238c0-15.751-12.769-28.519-28.517-28.519S8.035,175.116,8.035,190.867
				c0,15.748,12.77,28.518,28.518,28.518c7.498,0,14.316-2.896,19.406-7.633L50.79,206.969z"/>
			<path fill="#fff" d="M50.79,206.969c-1.308,1.156-2.765,2.141-4.323,2.955c1.27,1.1,3.057,2.988,4.258,5.688
				c1.893-1.086,3.646-2.381,5.234-3.859L50.79,206.969z"/>
			<path fill="#fff" d="M56.515,206.004c-6.693-6.801-15.655-7.25-19.305-7.645c-3.729-0.4-5.086-1.488-5.587-1.92
				c-1.542-1.369-2.528-3.35-2.528-5.572c0-4.119,3.338-7.458,7.457-7.458c4.12,0,7.459,3.339,7.459,7.458
				c0,1.047-0.218,2.041-0.609,2.947c1.029,0.279,3.711,1.098,6.161,2.609c0.731-1.707,1.136-3.584,1.136-5.557
				c0-7.813-6.334-14.148-14.146-14.148c-7.813,0-14.148,6.336-14.148,14.148c0,6.486,4.369,11.938,10.324,13.609
				c0.209,0.063,0.422,0.115,0.634,0.164c0.191,0.045,0.383,0.09,0.574,0.125c0.384,0.07,0.776,0.129,1.168,0.176h0.001
				c3.291,0.404,6.926,0.182,11.43,2.414c8.552,4.441,10.746,11.791,10.746,11.791h6.582
				C62.764,214.703,61.734,211.311,56.515,206.004z"/>
		</g>
		
	</g>


	
</g>
</svg>