<?xml version="1.0" encoding="utf-8"?>
<!-- Generator: Adobe Illustrator 15.0.0, SVG Export Plug-In . SVG Version: 6.00 Build 0)  -->
<!DOCTYPE svg PUBLIC "-//W3C//DTD SVG 1.1//EN" "http://www.w3.org/Graphics/SVG/1.1/DTD/svg11.dtd">
<svg version="1.1" id="Layer_1" xmlns="http://www.w3.org/2000/svg" xmlns:xlink="http://www.w3.org/1999/xlink" x="0px" y="0px"
	 width="900px" height="900px" viewBox="0 0 900 900" enable-background="new 0 0 900 900" xml:space="preserve">
<g>
	<g>
		<g>
			<g>
				<path fill="#FFFFFF" d="M556.771,526.715c-25.471,22.539-58.898,36.246-95.588,36.246c-79.716,0-144.337-64.635-144.337-144.352
					c0-79.716,64.621-144.353,144.337-144.353c79.717,0,144.338,64.637,144.338,144.353c0,21.217-4.617,41.36-12.85,59.483
					c7.258,5.27,20.934,16.693,34.367,36.113c16.264-28.154,25.605-60.768,25.605-95.596c0-105.75-85.727-191.475-191.461-191.475
					c-105.732,0-191.468,85.724-191.468,191.475c0,105.735,85.735,191.467,191.468,191.467c50.342,0,96.119-19.445,130.295-51.244
					L556.771,526.715z"/>
				<path fill="#FFFFFF" d="M556.771,526.715c-8.777,7.764-18.559,14.371-29.023,19.842c8.525,7.385,20.521,20.064,28.586,38.186
					c12.709-7.293,24.482-15.988,35.145-25.91L556.771,526.715z"/>
				<path fill="#1C75BC" d="M595.213,520.238c-44.938-45.662-105.109-48.678-129.611-51.326
					c-25.032-2.689-34.146-9.994-37.508-12.893c-10.354-9.191-16.976-22.488-16.976-37.411c0-27.655,22.41-50.073,50.066-50.073
					c27.662,0,50.08,22.418,50.08,50.073c0,7.029-1.463,13.704-4.092,19.787c6.91,1.875,24.916,7.369,41.369,17.52
					c4.908-11.461,7.623-24.063,7.623-37.307c0-52.453-42.527-94.993-94.98-94.993c-52.46,0-94.992,42.54-94.992,94.993
					c0,43.549,29.335,80.147,69.316,91.372c1.402,0.422,2.832,0.773,4.255,1.104c1.285,0.301,2.568,0.602,3.855,0.838
					c2.577,0.475,5.214,0.867,7.842,1.18h0.006c22.098,2.715,46.5,1.219,76.738,16.211c57.42,29.82,72.152,79.162,72.152,79.162
					h44.189C637.172,578.643,630.252,555.861,595.213,520.238z"/>
			</g>
		</g>
	</g>
</g>
</svg>
