<?xml version="1.0" encoding="utf-8"?>
<!-- Generator: Adobe Illustrator 21.0.2, SVG Export Plug-In . SVG Version: 6.00 Build 0)  -->
<svg version="1.1" id="FIXED_screen_play" xmlns="http://www.w3.org/2000/svg" xmlns:xlink="http://www.w3.org/1999/xlink" x="0px"
	 y="0px" viewBox="0 0 720 720" style="enable-background:new 0 0 720 720;" xml:space="preserve">
<style type="text/css">
	.st0{opacity:0.1;clip-path:url(#SVGID_2_);enable-background:new    ;}
	.st1{fill:#F9D87F;}
	.st2{fill:none;stroke:#FFFFFF;stroke-width:0.25;stroke-miterlimit:10;}
	.st3{fill:none;stroke:#FFFFFF;stroke-width:0.7087;stroke-linecap:round;stroke-miterlimit:10;}
	.st4{fill:#FFFFFF;}
	.st5{fill:none;stroke:#FFFFFF;stroke-width:1.4173;stroke-linecap:round;stroke-miterlimit:10;}
	.st6{fill:#7EC795;}
	.st7{fill:#90E0A7;}
	.st8{fill:#6DAA7F;}
	.st9{fill:#414C5C;}
	.st10{fill:#64768C;}
	.st11{fill:#1D2228;}
	.st12{fill:#E77577;}
	.st13{fill:#FFA4A9;}
	.st14{fill:#C9676C;}
	.st15{fill:#F7E2AD;}
	.st16{fill:#F7C546;}
	.st17{fill:#CECECE;}
	.st18{fill:#ADADAD;}
	.st19{fill:#2D363D;}
	.st20{fill:#101316;}
	.st21{fill:#5E916B;}
	.st22{fill:#2AB1EB;}
	.st23{fill:#7DCEEA;}
	.st24{fill:#279FC9;}
	.st25{fill:#228CA8;}
	.st26{fill:#E0AF41;}
	.st27{fill:none;}
</style>
<g>
	<g>
		<g>
			<g>
				<g>
					<g>
						<g>
							<defs>
								<path id="SVGID_1_" d="M-65.9-22v812.1h834.1V-22H-65.9z M556.9,467.7c0,5.9-0.8,9.3-4,13.9c-4.4,6.3-13.2,5.6-13.2,5.6
									l-2.6,2.2c0,0-0.1,5.5-0.3,9.6c-0.3,3.7-3.8,5.2-3.8,5.2s-127.3,75.9-138.3,81.9c-9.9,5.5-16.2,1.5-16.2,1.5
									S114.6,436.4,109.7,433.3c-4.5-2.7-4.3-5.5-4.3-5.5s-1.1-7.7,2.6-9.9c4-2.3,141.2-83.5,147.1-86.6c5.9-3.3,10.7-1,10.7-1
									c-3.2-3.6-2.6-6.9-2.6-6.9s-1.8-179-1.9-190c-0.1-12.1,5.5-12.9,5.5-12.9s4.3-2.3,6.9-3.6c2.7-1.2,6.6,0.7,6.6,0.7
									S534,259.8,545.6,267.7c11.7,8,12,23,12,23S556.9,461.2,556.9,467.7z"/>
							</defs>
							<clipPath id="SVGID_2_">
								<use xlink:href="#SVGID_1_"  style="overflow:visible;"/>
							</clipPath>
							<g transform="matrix(1 0 0 1 0 0)" class="st0">
								
									<image style="overflow:visible;enable-background:new    ;" width="586" height="601" xlink:href="6F4C43DB4514A9B7.png"  transform="matrix(1.3841 0 0 1.3841 -64.7495 -40.8822)">
								</image>
							</g>
						</g>
					</g>
				</g>
			</g>
		</g>
	</g>
	<g>
		<polygon class="st1" points="150.9,96.4 150.9,97.7 200.8,126.8 201,133.9 202.5,134.7 204,133.9 204.7,126.6 215.5,120.6 
			215.5,118.9 163.6,88.9 		"/>
		<g>
			<line class="st2" x1="282.6" y1="154.4" x2="283.3" y2="327.1"/>
			<line class="st2" x1="307.1" y1="168.4" x2="307.8" y2="341.1"/>
			<line class="st2" x1="331.4" y1="182.4" x2="332.1" y2="355.1"/>
			<line class="st2" x1="355.9" y1="196.5" x2="356.6" y2="369.1"/>
			<line class="st2" x1="380.2" y1="210.5" x2="380.9" y2="383.2"/>
			<line class="st2" x1="404.6" y1="224.6" x2="405.2" y2="397.2"/>
			<line class="st2" x1="429" y1="238.7" x2="429.7" y2="411.2"/>
			<line class="st2" x1="453.4" y1="252.8" x2="454.1" y2="425.1"/>
			<line class="st2" x1="477.8" y1="266.8" x2="478.5" y2="439.1"/>
			<line class="st2" x1="502.2" y1="280.9" x2="502.9" y2="453.1"/>
		</g>
		<line class="st2" x1="275.2" y1="159.7" x2="530.2" y2="306.6"/>
		<g>
			<line class="st2" x1="275.2" y1="169.8" x2="529.9" y2="316.6"/>
			<line class="st2" x1="275.2" y1="180.9" x2="529.8" y2="327.6"/>
			<line class="st2" x1="275.2" y1="192.1" x2="529.8" y2="338.8"/>
			<line class="st2" x1="275.2" y1="203.2" x2="529.7" y2="349.7"/>
			<line class="st2" x1="275.2" y1="214.2" x2="529.5" y2="360.9"/>
			<line class="st2" x1="275.2" y1="225.3" x2="529.5" y2="371.9"/>
			<line class="st2" x1="275.2" y1="236.5" x2="529.4" y2="383"/>
			<line class="st2" x1="275.2" y1="247.6" x2="529.4" y2="394"/>
			<line class="st2" x1="275.2" y1="258.7" x2="529.3" y2="405"/>
			<line class="st2" x1="275.2" y1="269.9" x2="529.1" y2="416.2"/>
			<line class="st2" x1="275.2" y1="281" x2="529.1" y2="427.2"/>
			<line class="st2" x1="275.2" y1="292.1" x2="529" y2="438.3"/>
			<line class="st2" x1="275.2" y1="303.3" x2="528.8" y2="449.3"/>
			<line class="st2" x1="275.2" y1="314.4" x2="528.8" y2="460.4"/>
		</g>
		<line class="st3" x1="275.2" y1="142" x2="532.4" y2="289.7"/>
		<polygon class="st2" points="530.2,297 275.2,150.1 275.2,322.4 528.8,467.8 		"/>
		<g>
			<path class="st4" d="M386.1,579.8c-4,0-7.8-1.4-8-1.4L255,507c-0.5,0.7-1.8,2.1-4.2,1.3c-3-1-27.6-15.1-29.7-16.4
				c-1.3-0.8-1.3-3.1-1.3-3.9c-5.1-3-106.4-61.8-111.6-64.7c-1.6-0.9-2.5-1.9-2.4-3c0.1-1.8,2.6-3.1,2.7-3.1
				c1-0.6,102.5-60.4,135.4-79.9c0.2-0.1,0.4,0,0.5,0.1c0.1,0.2,0,0.4-0.1,0.5c-32.9,19.5-134.4,79.3-135.4,79.9
				c-0.7,0.3-2.3,1.4-2.4,2.5c0,0.8,0.7,1.6,2.1,2.4c5.3,3,110.7,64.2,111.8,64.8l0.2,0.1v0.2c-0.1,0.8-0.1,2.9,0.9,3.5
				c2,1.3,26.7,15.4,29.5,16.4c2.6,0.9,3.5-1.1,3.6-1.2l0.2-0.4l0.3,0.2l123.3,71.5c0,0,7.9,2.8,12.6,0.4
				c6.6-3.3,143.8-85.7,145.2-86.5c0,0,0.9-0.6,0.9-1.6c0-0.9-0.7-2.3-3.8-4.1c-6.6-3.8-19.5-11.3-19.5-11.3l0.4-0.6
				c0,0,12.9,7.5,19.5,11.3c2.7,1.6,4.1,3.2,4.1,4.8c0,1.4-1.2,2.1-1.2,2.2c-1.4,0.8-138.6,83.2-145.2,86.5
				C389.7,579.5,387.9,579.8,386.1,579.8z"/>
		</g>
		<path class="st5" d="M106.6,426.4c0,0-0.4,4,3.2,6.2C112,434,373.1,584,376.2,585.9c4.4,2.6,9.9,5.6,18.1,1.2
			c8.2-4.4,139.8-82.9,141.1-83.6c3.3-1.8,2.7-6.5,2.7-6.5"/>
		<polygon class="st3" points="291.7,338.5 287.3,346.3 511.8,478 516.2,469.4 		"/>
		<g>
			<path class="st4" d="M548.5,387.9c-0.3,0-0.5-0.2-0.5-0.5v-94.2c0-13.7-8.6-19.3-8.7-19.4C536.8,272.3,282,123,271.8,121.1
				c-3.1-0.6-5.4-0.2-7,1.1c-2.4,2.1-2.3,5.9-2.3,6l-0.1,56c0,1.3,0.2,133.4,0.2,139.4c0,5.5,6,8,6,8c0.3,0.1,0.4,0.4,0.3,0.6
				c-0.1,0.3-0.4,0.4-0.6,0.3c-0.3-0.1-6.7-2.8-6.7-9c0-6-0.2-138.1-0.2-139.4l0.1-56c0-0.1-0.2-4.3,2.6-6.7c1.8-1.6,4.5-2,7.9-1.4
				c10.4,2,257.3,146.7,267.9,152.9c0.4,0.2,9.1,5.9,9.1,20.2v94.2C549,387.7,548.8,387.9,548.5,387.9z"/>
		</g>
		<path class="st3" d="M548.6,397.6l-0.1,79.1c0,0,0,4.6-2.2,7.7"/>
		<g>
			<path class="st4" d="M280.3,367.2c-0.7,0-1.2-0.2-1.3-0.3c-0.1-0.1-7.9-4.6-9.8-5.6c-0.6-0.3-0.9-0.7-0.9-1.1
				c0-0.6,0.8-1,0.9-1.1l1.5-1c1.7-0.9,2.9-0.1,3-0.1s8.6,4.8,9.8,5.5c0.5,0.3,0.7,0.6,0.7,1c0,0.6-0.5,1-0.6,1.1
				c-0.1,0-1.1,0.7-2.1,1.2C281.1,367.1,280.7,367.2,280.3,367.2z M279.4,366.3c0,0,0.9,0.4,1.8,0c1-0.5,2.1-1.2,2.1-1.2
				c0.1-0.1,0.3-0.3,0.3-0.5s-0.2-0.3-0.4-0.4c-1.2-0.7-9.7-5.4-9.8-5.5c-0.1,0-1-0.6-2.2,0.1l-1.5,1c-0.2,0.1-0.5,0.3-0.5,0.5
				c0,0.1,0.1,0.2,0.5,0.4C271.4,361.7,279.3,366.2,279.4,366.3L279.4,366.3z"/>
		</g>
		<g>
			<path class="st4" d="M294.3,375.5c-0.7,0-1.2-0.2-1.3-0.3c-0.1-0.1-7.4-4.2-9.3-5.2c-0.6-0.3-0.9-0.7-0.9-1.1
				c0-0.6,0.8-1,0.9-1.1l1.5-1c1.7-1.1,3.1-0.1,3.1-0.1c0.3,0.2,8,4.4,9.2,5.1c0.5,0.3,0.7,0.6,0.7,1c0,0.6-0.5,1-0.6,1.1
				c-0.1,0-1.1,0.7-2.1,1.2C295.1,375.4,294.7,375.5,294.3,375.5z M293.4,374.6c0,0,0.9,0.4,1.8,0c1-0.5,2.1-1.2,2.1-1.2
				c0.1-0.1,0.3-0.3,0.3-0.5s-0.2-0.3-0.4-0.4c-1.2-0.7-9.1-5.1-9.2-5.1c-0.1-0.1-1.1-0.8-2.3,0.1l-1.5,1c-0.2,0.1-0.5,0.3-0.5,0.5
				c0,0.1,0.1,0.2,0.5,0.4C285.9,370.4,293.3,374.5,293.4,374.6L293.4,374.6z"/>
		</g>
		<g>
			<path class="st4" d="M309.2,384.2c-0.7,0-1.2-0.2-1.3-0.3c-0.1-0.1-7.9-4.6-9.8-5.6c-0.6-0.3-0.9-0.7-0.9-1.1
				c0-0.6,0.8-1,0.9-1.1l1.4-1c1.3-0.9,2.5-0.5,3-0.1c0,0,8.6,4.8,9.8,5.5c0.5,0.3,0.7,0.6,0.7,1c0,0.6-0.5,1-0.6,1.1
				c-0.1,0-1.1,0.7-2.1,1.2C310,384.1,309.6,384.2,309.2,384.2z M308.3,383.3c0,0,0.9,0.4,1.8,0c1-0.5,2.1-1.2,2.1-1.2
				c0.1-0.1,0.3-0.3,0.3-0.5s-0.2-0.3-0.4-0.4c-1.2-0.7-9.7-5.4-9.8-5.5c-0.1-0.1-1.1-0.8-2.2,0.1l0,0l-1.5,1
				c-0.2,0.1-0.5,0.3-0.5,0.5c0,0.1,0.1,0.2,0.5,0.4C300.3,378.7,308.2,383.2,308.3,383.3L308.3,383.3z"/>
		</g>
		<g>
			<path class="st4" d="M324.5,392.8c-0.7,0-1.2-0.2-1.3-0.3c-0.1-0.1-7.9-4.6-9.8-5.6c-0.6-0.3-0.9-0.7-0.9-1.1
				c0-0.6,0.8-1,0.9-1.1l1.5-1c1.7-0.9,2.9-0.1,3-0.1s8.6,4.8,9.8,5.5c0.5,0.3,0.7,0.6,0.7,1c0,0.6-0.5,1-0.6,1.1
				c-0.1,0-1.1,0.7-2.1,1.2C325.3,392.7,324.9,392.8,324.5,392.8z M323.6,391.9c0,0,0.9,0.4,1.8,0c1-0.5,2.1-1.2,2.1-1.2
				c0.1-0.1,0.3-0.3,0.3-0.5s-0.2-0.3-0.4-0.4c-1.2-0.7-9.7-5.4-9.8-5.5c-0.1,0-1-0.6-2.2,0.1l-1.5,1c-0.2,0.1-0.5,0.3-0.5,0.5
				c0,0.1,0.1,0.2,0.5,0.4C315.6,387.3,323.5,391.8,323.6,391.9L323.6,391.9z"/>
		</g>
		<g>
			<path class="st4" d="M339.4,401.3c-0.7,0-1.2-0.2-1.3-0.3c-0.1-0.1-7.9-4.6-9.8-5.6c-0.6-0.3-0.9-0.7-0.9-1.1
				c0-0.6,0.8-1,0.9-1.1l1.5-1c1.6-1,2.9-0.1,3-0.1s8.6,4.8,9.8,5.5c0.5,0.3,0.7,0.6,0.7,1c0,0.6-0.5,1-0.6,1.1
				c-0.1,0-1.1,0.7-2.1,1.2C340.2,401.2,339.8,401.3,339.4,401.3z M338.5,400.4c0,0,0.9,0.4,1.8,0c1-0.5,2.1-1.2,2.1-1.2
				c0.1-0.1,0.3-0.3,0.3-0.5s-0.2-0.3-0.4-0.4c-1.2-0.7-9.7-5.4-9.8-5.5c-0.1,0-1.1-0.7-2.2,0.1l-1.5,1c-0.2,0.1-0.5,0.3-0.5,0.5
				c0,0.1,0.1,0.2,0.5,0.4C330.5,395.8,338.4,400.3,338.5,400.4L338.5,400.4z"/>
		</g>
		<g>
			<path class="st4" d="M354.2,409.7c-0.7,0-1.2-0.2-1.3-0.3c-0.1-0.1-7.9-4.6-9.8-5.6c-0.6-0.3-0.9-0.7-0.9-1.1
				c0-0.6,0.8-1,0.9-1.1l1.5-1c1.7-1,2.9-0.1,3-0.1s8.6,4.8,9.8,5.5c0.5,0.3,0.7,0.6,0.7,1c0,0.6-0.5,1-0.6,1.1
				c-0.1,0-1.1,0.7-2.1,1.2C355,409.6,354.6,409.7,354.2,409.7z M353.3,408.8c0,0,0.9,0.4,1.8,0c1-0.5,2.1-1.2,2.1-1.2
				c0.1-0.1,0.3-0.3,0.3-0.5s-0.2-0.3-0.4-0.4c-1.2-0.7-9.7-5.4-9.8-5.5c-0.1,0-1-0.7-2.2,0.1l-1.5,1c-0.2,0.1-0.5,0.3-0.5,0.5
				c0,0.1,0.1,0.2,0.5,0.4C345.3,404.2,353.2,408.7,353.3,408.8L353.3,408.8z"/>
		</g>
		<g>
			<path class="st4" d="M369.1,418.3c-0.7,0-1.2-0.2-1.3-0.3c-0.1-0.1-7.9-4.6-9.8-5.6c-0.6-0.3-0.9-0.7-0.9-1.1
				c0-0.6,0.8-1,0.9-1.1l1.5-1c1.8-1,2.9-0.1,3-0.1c0,0,8.6,4.8,9.8,5.5c0.5,0.3,0.7,0.6,0.7,1c0,0.6-0.5,1-0.6,1.1
				c-0.1,0-1.1,0.7-2.2,1.2C369.9,418.2,369.5,418.3,369.1,418.3z M368.2,417.4c0,0,0.9,0.4,1.8,0c1-0.5,2.1-1.2,2.1-1.2
				c0.1-0.1,0.3-0.3,0.3-0.5s-0.2-0.3-0.4-0.4c-1.2-0.7-9.7-5.4-9.8-5.5c-0.1-0.1-0.9-0.7-2.2,0.1l-1.5,1c-0.2,0.1-0.5,0.3-0.5,0.5
				c0,0.1,0.1,0.2,0.5,0.4C360.2,412.8,368.1,417.3,368.2,417.4L368.2,417.4z"/>
		</g>
		<g>
			<path class="st4" d="M384,427.1c-0.7,0-1.2-0.2-1.3-0.3c-0.1-0.1-7.9-4.6-9.8-5.6c-0.6-0.3-0.9-0.7-0.9-1.1c0-0.6,0.8-1,0.9-1.1
				l1.5-1c1.6-1,2.9-0.1,3-0.1s8.6,4.8,9.8,5.5c0.5,0.3,0.7,0.6,0.7,1c0,0.6-0.5,1-0.6,1.1c-0.1,0-1.1,0.7-2.1,1.2
				C384.8,427,384.4,427.1,384,427.1z M383.1,426.2c0,0,0.9,0.4,1.8,0c1-0.5,2.1-1.2,2.1-1.2c0.1-0.1,0.3-0.3,0.3-0.5
				s-0.2-0.3-0.4-0.4c-1.2-0.7-9.7-5.4-9.8-5.5c-0.1,0-1.1-0.7-2.2,0.1l-1.5,1c-0.2,0.1-0.5,0.3-0.5,0.5c0,0.1,0.1,0.2,0.5,0.4
				C375.1,421.6,383,426.1,383.1,426.2L383.1,426.2z"/>
		</g>
		<g>
			<path class="st4" d="M398.7,435.9c-0.7,0-1.2-0.2-1.3-0.3c-0.1-0.1-7.9-4.6-9.8-5.6c-0.6-0.3-0.9-0.7-0.9-1.1
				c0-0.6,0.8-1,0.9-1.1l1.5-1c1.7-1.1,3-0.1,3-0.1s8.6,4.8,9.8,5.5c0.5,0.3,0.7,0.6,0.7,1c0,0.6-0.5,1-0.6,1.1
				c-0.1,0-1.1,0.7-2.1,1.2C399.5,435.8,399.1,435.9,398.7,435.9z M397.8,435c0,0,0.9,0.4,1.8,0c1-0.5,2.1-1.2,2.1-1.2
				c0.1-0.1,0.3-0.3,0.3-0.5s-0.2-0.3-0.4-0.4c-1.2-0.7-9.7-5.4-9.8-5.5c-0.1-0.1-1-0.8-2.2,0.1l-1.5,1c-0.2,0.1-0.5,0.3-0.5,0.5
				c0,0.1,0.1,0.2,0.5,0.4C389.8,430.4,397.7,434.9,397.8,435L397.8,435z"/>
		</g>
		<g>
			<path class="st4" d="M413.8,444.6c-0.7,0-1.2-0.2-1.3-0.3c-0.1-0.1-7.9-4.6-9.8-5.6c-0.6-0.3-0.9-0.7-0.9-1.1
				c0-0.6,0.8-1,0.9-1.1l1.5-1c1.7-1,2.9-0.1,3-0.1s8.6,4.8,9.8,5.5c0.5,0.3,0.7,0.6,0.7,1c0,0.6-0.5,1-0.6,1.1
				c-0.1,0-1.1,0.7-2.2,1.2C414.6,444.5,414.2,444.6,413.8,444.6z M412.9,443.7c0,0,0.9,0.4,1.8,0c1-0.5,2.1-1.2,2.1-1.2
				c0.1-0.1,0.3-0.3,0.3-0.5s-0.2-0.3-0.4-0.4c-1.2-0.7-9.7-5.4-9.8-5.5c-0.1,0-1-0.7-2.2,0.1l-1.5,1c-0.2,0.1-0.5,0.3-0.5,0.5
				c0,0.1,0.1,0.2,0.5,0.4C404.9,439.1,412.8,443.6,412.9,443.7L412.9,443.7z"/>
		</g>
		<g>
			<path class="st4" d="M428.4,453.2c-0.7,0-1.2-0.2-1.3-0.3c-0.1-0.1-7.9-4.6-9.8-5.6c-0.6-0.3-0.9-0.7-0.9-1.1
				c0-0.6,0.8-1,0.9-1.1l1.5-1c1.7-1,2.9-0.1,3-0.1c0,0,8.6,4.8,9.8,5.5c0.5,0.3,0.7,0.6,0.7,1c0,0.6-0.5,1-0.6,1.1
				c-0.1,0-1.1,0.7-2.2,1.2C429.2,453.1,428.8,453.2,428.4,453.2z M427.5,452.3c0,0,0.9,0.4,1.8,0c1-0.5,2.1-1.2,2.1-1.2
				c0.1-0.1,0.3-0.3,0.3-0.5s-0.2-0.3-0.4-0.4c-1.2-0.7-9.7-5.4-9.8-5.5c-0.1,0-1-0.7-2.2,0.1l-1.5,1c-0.2,0.1-0.5,0.3-0.5,0.5
				c0,0.1,0.1,0.2,0.5,0.4C419.5,447.7,427.4,452.2,427.5,452.3L427.5,452.3z"/>
		</g>
		<g>
			<path class="st4" d="M443.5,462c-0.7,0-1.2-0.2-1.3-0.3c-0.1-0.1-7.9-4.6-9.8-5.6c-0.6-0.3-0.9-0.7-0.9-1.1c0-0.6,0.8-1,0.9-1.1
				l1.5-1c1.7-1.1,3-0.1,3-0.1s8.6,4.8,9.8,5.5c0.5,0.3,0.7,0.6,0.7,1c0,0.6-0.5,1-0.6,1.1c-0.1,0-1.1,0.7-2.1,1.2
				C444.3,461.9,443.9,462,443.5,462z M442.6,461.1c0,0,0.9,0.4,1.8,0c1-0.5,2.1-1.2,2.1-1.2c0.1-0.1,0.3-0.3,0.3-0.5
				s-0.2-0.3-0.4-0.4c-1.2-0.7-9.7-5.4-9.8-5.5c-0.1-0.1-1-0.8-2.2,0.1l-1.5,1c-0.2,0.1-0.5,0.3-0.5,0.5c0,0.1,0.1,0.2,0.5,0.4
				C434.6,456.5,442.5,461,442.6,461.1L442.6,461.1z"/>
		</g>
		<g>
			<path class="st4" d="M458.6,470.9c-0.7,0-1.2-0.2-1.3-0.3c-0.1-0.1-7.9-4.6-9.8-5.6c-0.6-0.3-0.9-0.7-0.9-1.1
				c0-0.6,0.8-1,0.9-1.1l1.5-1c1.8-1.1,3-0.1,3-0.1s8.6,4.8,9.7,5.5c0.5,0.3,0.7,0.6,0.7,1c0,0.6-0.5,1-0.6,1.1
				c-0.1,0-1.1,0.7-2.2,1.2C459.4,470.8,459,470.9,458.6,470.9z M457.7,470c0,0,0.9,0.4,1.8,0c1-0.5,2.1-1.2,2.1-1.2
				c0.1-0.1,0.3-0.3,0.3-0.5s-0.2-0.3-0.4-0.4c-1.2-0.7-9.7-5.4-9.8-5.5c-0.1-0.1-0.9-0.7-2.2,0.1l-1.5,1c-0.2,0.1-0.5,0.3-0.5,0.5
				c0,0.1,0.1,0.2,0.5,0.4C449.7,465.4,457.6,469.9,457.7,470L457.7,470z"/>
		</g>
		<g>
			<path class="st4" d="M474,479.3c-0.7,0-1.2-0.2-1.3-0.3c-0.1-0.1-7.9-4.6-9.8-5.6c-0.6-0.3-0.9-0.7-0.9-1.1c0-0.6,0.8-1,0.9-1.1
				l1.5-1c1.6-0.9,2.9-0.1,3-0.1s8.6,4.8,9.8,5.5c0.5,0.3,0.7,0.6,0.7,1c0,0.6-0.5,1-0.6,1.1c-0.1,0-1.1,0.7-2.1,1.2
				C474.8,479.2,474.4,479.3,474,479.3z M473.1,478.4c0,0,0.9,0.4,1.8,0c1-0.5,2.1-1.2,2.1-1.2c0.1-0.1,0.3-0.3,0.3-0.5
				s-0.2-0.3-0.4-0.4c-1.2-0.7-9.7-5.4-9.8-5.5c0,0-1.1-0.6-2.2,0.1l-1.5,1c-0.2,0.1-0.5,0.3-0.5,0.5c0,0.1,0.1,0.2,0.5,0.4
				C465.1,473.8,473,478.3,473.1,478.4L473.1,478.4z"/>
		</g>
		<g>
			<path class="st4" d="M267.4,374.8c-0.7,0-1.2-0.2-1.3-0.3c-0.1,0-1.8-1.1-3.6-2.2c-0.2-0.1-0.2-0.3-0.1-0.5s0.3-0.2,0.5-0.1
				c1.9,1.1,3.6,2.2,3.6,2.2l0,0c0,0,0.9,0.4,1.8,0c1-0.5,8-4.5,8.1-4.5c0.1-0.1,0.3-0.3,0.3-0.5s-0.2-0.3-0.4-0.4
				c-1.2-0.7-9.7-5.4-9.8-5.5c-0.1,0-1-0.7-2.1,0.1l-4.7,2.6c-0.2,0.1-0.4,0-0.5-0.1c-0.1-0.2,0-0.4,0.1-0.5l4.7-2.6
				c1.6-1,2.8-0.1,2.9-0.1s8.6,4.8,9.8,5.5c0.5,0.3,0.7,0.6,0.7,1c0,0.6-0.5,1-0.6,1.1c-0.3,0.2-7.2,4-8.1,4.5
				C268.2,374.7,267.8,374.8,267.4,374.8z"/>
		</g>
		<g>
			<path class="st4" d="M281.6,383.8c-0.7,0-1.2-0.2-1.3-0.3c0,0-1.5-0.8-3-1.8c-0.2-0.1-0.2-0.3-0.1-0.5s0.3-0.2,0.5-0.1
				c1.6,1,3,1.8,3,1.8l0,0c0,0,0.9,0.4,1.8,0c1-0.5,8-4.5,8.1-4.5c0.1-0.1,0.3-0.3,0.3-0.5s-0.2-0.3-0.4-0.4
				c-1.2-0.7-9.7-5.4-9.8-5.5c-0.1,0-1-0.7-2.1,0.1l-1.5,0.8c-0.2,0.1-0.4,0-0.5-0.1c-0.1-0.2,0-0.4,0.1-0.5l1.5-0.8
				c1.6-1,2.8-0.1,2.9-0.1s8.6,4.8,9.8,5.5c0.5,0.3,0.7,0.6,0.7,1c0,0.6-0.5,1-0.6,1.1c-0.3,0.2-7.2,4-8.1,4.5
				C282.4,383.7,282,383.8,281.6,383.8z"/>
		</g>
		<g>
			<path class="st4" d="M296.6,392.2c-0.7,0-1.2-0.2-1.3-0.3c0,0-1-0.5-2.2-1.2c-0.2-0.1-0.2-0.3-0.1-0.5s0.3-0.2,0.5-0.1
				c1.2,0.7,2.2,1.2,2.2,1.2l0,0c0,0,1,0.4,1.8,0c1-0.5,8-4.5,8.1-4.5c0.1-0.1,0.3-0.3,0.3-0.5s-0.2-0.3-0.4-0.4
				c-1.2-0.7-9.7-5.4-9.8-5.5c-0.1,0-1-0.7-2.1,0.1l-2.1,1.1c-0.2,0.1-0.4,0-0.5-0.1s0-0.4,0.1-0.5l2.1-1.1c1.6-1,2.8-0.1,2.9-0.1
				s8.6,4.8,9.8,5.5c0.5,0.3,0.7,0.6,0.7,1c0,0.6-0.5,1-0.6,1.1c-0.3,0.2-7.2,4-8.1,4.5C297.4,392.1,297,392.2,296.6,392.2z"/>
		</g>
		<g>
			<path class="st4" d="M311.6,400.2c-0.8,0-1.5-0.4-1.5-0.5l0,0c0,0-0.6-0.3-1.4-0.8c-0.2-0.1-0.2-0.3-0.1-0.5s0.3-0.2,0.5-0.1
				c0.8,0.5,1.4,0.8,1.4,0.8c0.1,0,1.1,0.7,2,0.1c1-0.5,8-4.5,8.1-4.5c0.1-0.1,0.3-0.3,0.3-0.5s-0.2-0.3-0.4-0.4
				c-1.2-0.7-9.7-5.4-9.8-5.5c-0.1,0-1-0.7-2.1,0.1L306,390c-0.2,0.1-0.4,0.1-0.5-0.1s-0.1-0.4,0.1-0.5l2.6-1.6
				c1.6-1,2.8-0.1,2.9-0.1s8.6,4.8,9.8,5.5c0.5,0.3,0.7,0.6,0.7,1c0,0.6-0.5,1-0.6,1.1c-0.3,0.2-7.2,4-8.1,4.5
				C312.4,400.2,312,400.2,311.6,400.2z"/>
		</g>
		<g>
			<path class="st4" d="M326.4,408.8c-0.7,0-1.2-0.2-1.3-0.3c-0.1,0-1-0.6-2.3-1.4c-0.2-0.1-0.2-0.3-0.1-0.5s0.3-0.2,0.5-0.1
				c1.4,0.8,2.3,1.4,2.3,1.4l0,0c0,0,0.9,0.4,1.7,0c1-0.5,8-4.5,8.1-4.5c0.1-0.1,0.3-0.3,0.3-0.5s-0.2-0.3-0.4-0.4
				c-1.2-0.7-9.7-5.4-9.8-5.5c-0.1,0-1-0.7-2.1,0.1l-3.2,1.8c-0.2,0.1-0.4,0-0.5-0.1c-0.1-0.2,0-0.4,0.1-0.5l3.2-1.8
				c1.6-1,2.8-0.1,2.9-0.1s8.6,4.8,9.8,5.5c0.5,0.3,0.7,0.6,0.7,1c0,0.6-0.5,1-0.6,1.1c-0.3,0.2-7.2,4-8.1,4.5
				C327.2,408.7,326.8,408.8,326.4,408.8z"/>
		</g>
		<g>
			<path class="st4" d="M341.3,417.3c-0.7,0-1.2-0.2-1.3-0.3c-0.1,0-1.7-1-3.7-2.2c-0.2-0.1-0.2-0.3-0.1-0.5s0.3-0.2,0.5-0.1
				c2.1,1.2,3.7,2.2,3.7,2.2l0,0c0,0,0.9,0.4,1.8,0c1-0.5,8-4.5,8.1-4.5c0.1-0.1,0.3-0.3,0.3-0.5s-0.2-0.3-0.4-0.4
				c-1.2-0.7-9.7-5.4-9.8-5.5c-0.1,0-1-0.7-2.1,0.1l-4.3,2.3c-0.2,0.1-0.4,0-0.5-0.1c-0.1-0.2,0-0.4,0.1-0.5l4.3-2.3
				c1.6-1,2.8-0.1,2.9-0.1s8.6,4.8,9.8,5.5c0.5,0.3,0.7,0.6,0.7,1c0,0.6-0.5,1-0.6,1.1c-0.3,0.2-7.2,4-8.1,4.5
				C342.1,417.2,341.7,417.3,341.3,417.3z"/>
		</g>
		<g>
			<path class="st4" d="M356.7,425.9c-0.7,0-1.2-0.2-1.3-0.3c-0.1,0-1.3-0.6-2.9-1.6c-0.2-0.1-0.2-0.3-0.1-0.5s0.3-0.2,0.5-0.1
				c1.6,1,2.8,1.6,2.9,1.6c0,0,1,0.4,1.8,0c1-0.5,8-4.5,8.1-4.5c0.1-0.1,0.3-0.3,0.3-0.5s-0.2-0.3-0.4-0.4c-1.2-0.7-9.7-5.4-9.8-5.5
				c-0.1,0-1-0.7-2.1,0.1l-3.4,1.9c-0.2,0.1-0.4,0-0.5-0.1s0-0.4,0.1-0.5l3.4-1.9c1.6-1,2.8-0.1,2.9-0.1s8.6,4.8,9.8,5.5
				c0.5,0.3,0.7,0.6,0.7,1c0,0.6-0.5,1-0.6,1.1c-0.3,0.2-7.2,4-8.1,4.5C357.5,425.8,357.1,425.9,356.7,425.9z"/>
		</g>
		<g>
			<path class="st4" d="M371.8,435.1c-0.7,0-1.2-0.2-1.3-0.3c-0.1,0-1.2-0.6-2.8-1.6c-0.2-0.1-0.2-0.3-0.1-0.5s0.3-0.2,0.5-0.1
				c1.5,1,2.7,1.6,2.7,1.6l0,0c0,0,1,0.4,1.8,0c1-0.5,8-4.5,8.1-4.5c0.1-0.1,0.3-0.3,0.3-0.5s-0.2-0.3-0.4-0.4
				c-1.2-0.7-9.7-5.4-9.8-5.5c-0.1,0-1-0.7-2.1,0.1l-2.7,1.5c-0.2,0.1-0.4,0-0.5-0.1c-0.1-0.2,0-0.4,0.1-0.5l2.7-1.5
				c1.6-1,2.8-0.1,2.9-0.1s8.6,4.8,9.8,5.5c0.5,0.3,0.7,0.6,0.7,1c0,0.6-0.5,1-0.6,1.1c-0.3,0.2-7.2,4-8.2,4.5
				C372.6,435,372.2,435.1,371.8,435.1z"/>
		</g>
		<g>
			<path class="st4" d="M387.3,444.4c-0.7,0-1.2-0.2-1.3-0.3c-0.1,0-1.2-0.7-2.5-1.5c-0.2-0.1-0.2-0.3-0.1-0.5s0.3-0.2,0.5-0.1
				c1.4,0.8,2.5,1.5,2.5,1.5l0,0c0,0,0.9,0.4,1.8,0c1-0.5,8-4.5,8.1-4.5c0.1-0.1,0.3-0.3,0.3-0.5s-0.2-0.3-0.4-0.4
				c-1.2-0.7-9.7-5.4-9.8-5.5c-0.1,0-1-0.7-2.1,0.1l-2.3,1.2c-0.2,0.1-0.4,0-0.5-0.2s0-0.4,0.2-0.5l2.3-1.2c1.6-1,2.8-0.1,2.9-0.1
				s8.6,4.8,9.8,5.5c0.5,0.3,0.7,0.6,0.7,1c0,0.6-0.5,1-0.6,1.1c-0.3,0.2-7.2,4-8.2,4.5C388.1,444.3,387.7,444.4,387.3,444.4z"/>
		</g>
		<g>
			<path class="st4" d="M403.5,453.5c-0.7,0-1.2-0.2-1.3-0.3c-0.1,0-2.2-1.3-4.3-2.5c-0.2-0.1-0.2-0.3-0.1-0.5s0.3-0.2,0.5-0.1
				c2.2,1.2,4.3,2.5,4.3,2.5l0,0c0,0,0.9,0.4,1.8,0c1-0.5,8-4.5,8.1-4.5c0.1-0.1,0.3-0.3,0.3-0.5s-0.2-0.3-0.4-0.4
				c-1.2-0.7-9.7-5.4-9.8-5.5c-0.1,0-1-0.7-2.1,0.1l-2.9,1.6c-0.2,0.1-0.4,0-0.5-0.1c-0.1-0.2,0-0.4,0.1-0.5l2.9-1.6
				c1.6-1,2.8-0.1,2.9-0.1s8.6,4.8,9.8,5.5c0.5,0.3,0.7,0.6,0.7,1c0,0.6-0.5,1-0.6,1.1c-0.3,0.2-7.2,4-8.1,4.5
				C404.3,453.4,403.9,453.5,403.5,453.5z"/>
		</g>
		<g>
			<path class="st4" d="M419.7,463.3c-0.7,0-1.2-0.2-1.3-0.3c0,0-1.5-0.8-3.3-1.9c-0.2-0.1-0.2-0.3-0.1-0.5s0.3-0.2,0.5-0.1
				c1.8,1.1,3.3,1.9,3.3,1.9l0,0c0,0,0.9,0.4,1.8,0c1-0.5,8-4.5,8.1-4.5c0.1-0.1,0.3-0.3,0.3-0.5s-0.2-0.3-0.4-0.4
				c-1.2-0.7-9.7-5.4-9.8-5.5c-0.1,0-1-0.7-2.1,0.1l-3.3,1.9c-0.2,0.1-0.4,0-0.5-0.1c-0.1-0.2,0-0.4,0.1-0.5l3.3-1.9
				c1.6-1,2.8-0.1,2.9-0.1s8.6,4.8,9.8,5.5c0.5,0.3,0.7,0.6,0.7,1c0,0.6-0.5,1-0.6,1.1c-0.3,0.2-7.2,4-8.1,4.5
				C420.5,463.2,420.1,463.3,419.7,463.3z"/>
		</g>
		<g>
			<path class="st4" d="M436.5,473.4c-0.7,0-1.2-0.2-1.3-0.3c0,0-2.2-1.1-4.3-2.5c-0.2-0.1-0.2-0.3-0.1-0.5s0.3-0.2,0.5-0.1
				c2.2,1.4,4.3,2.5,4.3,2.5l0,0c0,0,1,0.4,1.8,0c1-0.5,8-4.5,8.1-4.5c0.1-0.1,0.3-0.3,0.3-0.5s-0.2-0.3-0.4-0.4
				c-1.2-0.7-9.7-5.4-9.8-5.5c-0.1,0-1-0.7-2.1,0.1l-2.9,1.6c-0.2,0.1-0.4,0-0.5-0.1c-0.1-0.2,0-0.4,0.1-0.5l2.9-1.6
				c1.6-1,2.8-0.1,2.9-0.1s8.6,4.8,9.8,5.5c0.5,0.3,0.7,0.6,0.7,1c0,0.6-0.5,1-0.6,1.1c-0.3,0.2-7.2,4-8.1,4.5
				C437.3,473.3,436.9,473.4,436.5,473.4z"/>
		</g>
		<g>
			<path class="st4" d="M461,486.9c-0.7,0-1.2-0.2-1.3-0.3l-4.9-2.9c-0.2-0.1-0.2-0.3-0.1-0.5s0.3-0.2,0.5-0.1l4.9,2.9l0,0
				c0,0,0.9,0.4,1.8,0c1-0.5,8-4.5,8.1-4.5c0.1-0.1,0.3-0.3,0.3-0.5s-0.2-0.3-0.4-0.4c-1.2-0.7-16.2-9.1-16.4-9.2
				c-0.1,0-1-0.7-2.1,0.1l-3.8,2.2c-0.2,0.1-0.4,0-0.5-0.1c-0.1-0.2,0-0.4,0.1-0.5l3.8-2.2c1.6-1,2.8-0.1,2.9-0.1
				c0.1,0.1,15.2,8.5,16.4,9.2c0.5,0.3,0.7,0.6,0.7,1c0,0.6-0.5,1-0.6,1.1c-0.3,0.2-7.2,4-8.1,4.5
				C461.8,486.8,461.4,486.9,461,486.9z"/>
		</g>
		<g>
			<path class="st4" d="M277.8,396.5c-0.7,0-1.2-0.2-1.3-0.3c0,0-1.7-1-3.8-2.2c-0.2-0.1-0.2-0.3-0.1-0.5s0.3-0.2,0.5-0.1
				c2.1,1.2,3.8,2.2,3.8,2.2l0,0c0,0,0.9,0.4,1.8,0c1-0.5,8-4.5,8.1-4.5c0.1-0.1,0.3-0.3,0.3-0.5s-0.2-0.3-0.4-0.4
				c-1.2-0.7-9.7-5.4-9.8-5.5c-0.1,0-1-0.7-2.1,0.1L271,387c-0.2,0.1-0.4,0-0.5-0.1c-0.1-0.2,0-0.4,0.1-0.5l3.8-2.2
				c1.6-1,2.8-0.1,2.9-0.1s8.6,4.8,9.8,5.5c0.5,0.3,0.7,0.6,0.7,1c0,0.6-0.5,1-0.6,1.1c-0.3,0.2-7.2,4-8.1,4.5
				C278.6,396.4,278.2,396.5,277.8,396.5z"/>
		</g>
		<g>
			<path class="st4" d="M291.9,405.5c-0.7,0-1.2-0.2-1.3-0.3c0,0-1.7-1-3.8-2.2c-0.2-0.1-0.2-0.3-0.1-0.5s0.3-0.2,0.5-0.1
				c2.1,1.2,3.8,2.2,3.8,2.2l0,0c0,0,0.9,0.4,1.8,0c1-0.5,8-4.5,8.1-4.5c0.1-0.1,0.3-0.3,0.3-0.5s-0.2-0.3-0.4-0.4
				c-1.2-0.7-9.7-5.4-9.8-5.5c-0.1,0-1-0.7-2.1,0.1l-3.3,1.8c-0.2,0.1-0.4,0-0.5-0.1c-0.1-0.2,0-0.4,0.1-0.5l3.3-1.8
				c1.6-1,2.8-0.1,2.9-0.1s8.6,4.8,9.8,5.5c0.5,0.3,0.7,0.6,0.7,1c0,0.6-0.5,1-0.6,1.1c-0.3,0.2-7.2,4-8.1,4.5
				C292.7,405.4,292.3,405.5,291.9,405.5z"/>
		</g>
		<g>
			<path class="st4" d="M306.9,414.2c-0.7,0-1.2-0.2-1.3-0.3c0,0-2.2-1.1-4.3-2.5c-0.2-0.1-0.2-0.3-0.1-0.5s0.3-0.2,0.5-0.1
				c2.2,1.4,4.3,2.5,4.3,2.5l0,0c0,0,1,0.4,1.8,0c1-0.5,8-4.5,8.1-4.5c0.1-0.1,0.3-0.3,0.3-0.5s-0.2-0.3-0.4-0.4
				c-1.2-0.7-9.8-5.5-9.9-5.6c-0.1,0-1-0.7-2.1,0.1l-3.6,2.1c-0.2,0.1-0.4,0-0.5-0.1c-0.1-0.2,0-0.4,0.1-0.5l3.6-2.1
				c1.6-1,2.8-0.1,2.9-0.1s8.7,4.9,9.9,5.6c0.5,0.3,0.7,0.6,0.7,1c0,0.6-0.5,1-0.6,1.1c-0.3,0.2-7.2,4-8.1,4.5
				C307.7,414.1,307.3,414.2,306.9,414.2z"/>
		</g>
		<g>
			<path class="st4" d="M321.9,422.1c-0.8,0-1.5-0.4-1.5-0.5l0,0c0,0-1.5-0.8-3.3-1.9c-0.2-0.1-0.2-0.3-0.1-0.5s0.3-0.2,0.5-0.1
				c1.8,1.1,3.3,1.9,3.3,1.9c0.1,0,1.1,0.7,1.9,0.1c1-0.5,8-4.5,8.1-4.5c0.1-0.1,0.3-0.3,0.3-0.5s-0.2-0.3-0.4-0.4
				c-1.2-0.7-9.7-5.4-9.8-5.5c-0.1,0-1-0.7-2.1,0.1l-3,1.6c-0.2,0.1-0.4,0-0.5-0.1c-0.1-0.2,0-0.4,0.1-0.5l3-1.6
				c1.6-1,2.8-0.1,2.9-0.1s8.6,4.8,9.8,5.5c0.5,0.3,0.7,0.6,0.7,1c0,0.6-0.5,1-0.6,1.1c-0.3,0.2-7.2,4-8.1,4.5
				C322.7,422.1,322.3,422.1,321.9,422.1z"/>
		</g>
		<g>
			<path class="st4" d="M336.8,430.6c-0.7,0-1.2-0.2-1.3-0.3c-0.1,0-2.2-1.2-4.4-2.6c-0.2-0.1-0.2-0.3-0.1-0.5s0.3-0.2,0.5-0.1
				c2.3,1.4,4.4,2.6,4.4,2.6l0,0c0,0,0.9,0.4,1.8,0c1-0.5,8-4.5,8.1-4.5c0.1-0.1,0.3-0.3,0.3-0.5s-0.2-0.3-0.4-0.4
				c-1.2-0.7-9.7-5.4-9.8-5.5c-0.1,0-1-0.7-2.1,0.1l-4.3,2.3c-0.2,0.1-0.4,0-0.5-0.1c-0.1-0.2,0-0.4,0.1-0.5l4.3-2.3
				c1.6-1,2.8-0.1,2.9-0.1s8.6,4.8,9.8,5.5c0.5,0.3,0.7,0.6,0.7,1c0,0.6-0.5,1-0.6,1.1c-0.3,0.2-7.2,4-8.1,4.5
				C337.6,430.5,337.2,430.6,336.8,430.6z"/>
		</g>
		<g>
			<path class="st4" d="M351.4,439.1c-0.7,0-1.2-0.2-1.3-0.3c-0.1,0-1.8-1.1-3.8-2.3c-0.2-0.1-0.2-0.3-0.1-0.5s0.3-0.2,0.5-0.1
				c2.1,1.2,3.8,2.3,3.8,2.3l0,0c0,0,0.9,0.4,1.8,0c1-0.5,8-4.5,8.1-4.5c0.1-0.1,0.3-0.3,0.3-0.5s-0.2-0.3-0.4-0.4
				c-1.2-0.7-9.7-5.4-9.8-5.5c-0.1,0-1-0.7-2.1,0.1l-3.6,1.9c-0.2,0.1-0.4,0-0.5-0.1c-0.1-0.2,0-0.4,0.1-0.5l3.6-1.9
				c1.6-1,2.8-0.1,2.9-0.1s8.6,4.8,9.8,5.5c0.5,0.3,0.7,0.6,0.7,1c0,0.6-0.5,1-0.6,1.1c-0.3,0.2-7.2,4-8.1,4.5
				C352.2,439,351.8,439.1,351.4,439.1z"/>
		</g>
		<g>
			<path class="st4" d="M366.9,447.8c-0.7,0-1.2-0.2-1.3-0.3c0,0-1.5-0.8-3.3-1.9c-0.2-0.1-0.2-0.3-0.1-0.5s0.3-0.2,0.5-0.1
				c1.8,1.1,3.3,1.9,3.3,1.9l0,0c0,0,0.9,0.4,1.8,0c1-0.5,8-4.5,8.1-4.5c0.1-0.1,0.3-0.3,0.3-0.5s-0.2-0.3-0.4-0.4
				c-1.2-0.7-9.7-5.4-9.8-5.5c-0.1,0-1-0.7-2.1,0.1l-2.9,1.6c-0.2,0.1-0.4,0-0.5-0.1c-0.1-0.2,0-0.4,0.1-0.5l2.9-1.6
				c1.6-1,2.8-0.1,2.9-0.1s8.6,4.8,9.8,5.5c0.5,0.3,0.7,0.6,0.7,1c0,0.6-0.5,1-0.6,1.1c-0.3,0.2-7.2,4-8.1,4.5
				C367.7,447.7,367.3,447.8,366.9,447.8z"/>
		</g>
		<g>
			<path class="st4" d="M382.1,456.9c-0.7,0-1.2-0.2-1.3-0.3c0,0-2.3-1.2-4.5-2.6c-0.2-0.1-0.2-0.3-0.1-0.5s0.3-0.2,0.5-0.1
				c2.3,1.4,4.5,2.6,4.5,2.6l0,0c0,0,0.9,0.4,1.8,0c1-0.5,8-4.5,8.1-4.5c0.1-0.1,0.3-0.3,0.3-0.5s-0.2-0.3-0.4-0.4
				c-1.2-0.7-9.7-5.4-9.8-5.5c-0.1,0-1-0.7-2.1,0.1l-3.2,1.8c-0.2,0.1-0.4,0-0.5-0.1c-0.1-0.2,0-0.4,0.1-0.5l3.2-1.8
				c1.6-1,2.8-0.1,2.9-0.1s8.6,4.8,9.8,5.5c0.5,0.3,0.7,0.6,0.7,1c0,0.6-0.5,1-0.6,1.1c-0.3,0.2-7.2,4-8.2,4.5
				C382.9,456.8,382.5,456.9,382.1,456.9z"/>
		</g>
		<g>
			<path class="st4" d="M397.5,466.3c-0.7,0-1.2-0.2-1.3-0.3c-0.1,0-2.4-1.5-4.8-2.9c-0.2-0.1-0.2-0.3-0.1-0.5s0.3-0.2,0.5-0.1
				c2.5,1.4,4.8,2.9,4.8,2.9l0,0c0,0,0.9,0.4,1.7,0c1-0.5,8-4.5,8.1-4.5c0.1-0.1,0.3-0.3,0.3-0.5s-0.2-0.3-0.4-0.4
				c-1.2-0.7-9.7-5.4-9.8-5.5c-0.1,0-1-0.7-2.1,0.1l-2.3,1.4c-0.2,0.1-0.4,0-0.5-0.1c-0.1-0.2,0-0.4,0.1-0.5l2.3-1.4
				c1.6-1,2.8-0.1,2.9-0.1s8.6,4.8,9.8,5.5c0.5,0.3,0.7,0.6,0.7,1c0,0.6-0.5,1-0.6,1.1c-0.3,0.2-7.2,4-8.1,4.5
				C398.3,466.2,397.9,466.3,397.5,466.3z"/>
		</g>
		<g>
			<path class="st4" d="M413.6,475.3c-0.7,0-1.2-0.2-1.3-0.3c-0.1,0-2.2-1.2-4.4-2.6c-0.2-0.1-0.2-0.3-0.1-0.5s0.3-0.2,0.5-0.1
				c2.3,1.4,4.4,2.6,4.4,2.6l0,0c0,0,0.9,0.4,1.8,0c1-0.5,8-4.5,8.1-4.5c0.1-0.1,0.3-0.3,0.3-0.5s-0.2-0.3-0.4-0.4
				c-1.2-0.7-9.7-5.4-9.8-5.5c-0.1,0-1-0.7-2.1,0.1l-2.9,1.6c-0.2,0.1-0.4,0-0.5-0.1c-0.1-0.2,0-0.4,0.1-0.5l2.9-1.6
				c1.6-1,2.8-0.1,2.9-0.1s8.6,4.8,9.8,5.5c0.5,0.3,0.7,0.6,0.7,1c0,0.6-0.5,1-0.6,1.1c-0.3,0.2-7.2,4-8.2,4.5
				C414.4,475.2,414,475.3,413.6,475.3z"/>
		</g>
		<g>
			<path class="st4" d="M430.1,485.2c-0.7,0-1.2-0.2-1.3-0.3c0,0-2.3-1.3-4.8-2.7c-0.2-0.1-0.2-0.3-0.1-0.5s0.3-0.2,0.5-0.1
				c2.5,1.4,4.8,2.7,4.8,2.7l0,0c0,0,0.9,0.4,1.8,0c1-0.5,8-4.5,8.1-4.5c0.1-0.1,0.3-0.3,0.3-0.5s-0.2-0.3-0.4-0.4
				c-1.2-0.7-9.7-5.4-9.8-5.5c-0.1,0-1-0.7-2.1,0.1l-2.2,1.2c-0.2,0.1-0.4,0-0.5-0.1c-0.1-0.2,0-0.4,0.1-0.5l2.2-1.2
				c1.6-1,2.8-0.1,2.9-0.1s8.6,4.8,9.8,5.5c0.5,0.3,0.7,0.6,0.7,1c0,0.6-0.5,1-0.6,1.1c-0.3,0.2-7.2,4-8.2,4.5
				C430.9,485.1,430.5,485.2,430.1,485.2z"/>
		</g>
		<g>
			<path class="st4" d="M261.6,387.5c-0.7,0-1.2-0.2-1.3-0.3c-0.1-0.1-7.6-4.3-12.4-7c-0.2-0.1-0.2-0.3-0.1-0.5
				c0.1-0.2,0.3-0.2,0.5-0.1c4.8,2.7,12.3,7,12.4,7l0,0c0,0,0.9,0.4,1.8,0c1-0.5,8-4.5,8.1-4.5c0.1-0.1,0.3-0.3,0.3-0.5
				s-0.2-0.3-0.4-0.4c-1.2-0.7-16.2-9.1-16.4-9.2c-0.1,0-1-0.7-2.1,0.1l-4.4,2.5c-0.2,0.1-0.4,0-0.5-0.1c-0.1-0.2,0-0.4,0.1-0.5
				l4.4-2.5c1.6-1,2.8-0.1,2.9-0.1c0.1,0.1,15.2,8.5,16.4,9.2c0.5,0.3,0.7,0.6,0.7,1c0,0.6-0.5,1-0.6,1.1c-0.3,0.2-7.2,4-8.1,4.5
				C262.4,387.4,262,387.5,261.6,387.5z"/>
		</g>
		<g>
			<path class="st4" d="M279.1,413.7c-0.7,0-1.2-0.2-1.3-0.3c0,0-2.4-1.4-4.9-2.9c-0.2-0.1-0.2-0.3-0.1-0.5s0.3-0.2,0.5-0.1
				c2.5,1.5,4.9,2.9,4.9,2.9l0,0c0,0,0.9,0.4,1.8,0c1-0.5,8-4.5,8.1-4.5c0.1-0.1,0.3-0.3,0.3-0.5s-0.2-0.3-0.4-0.4
				c-1.2-0.7-9.7-5.4-9.8-5.5c-0.1,0-1-0.7-2.1,0.1l-2.9,1.6c-0.2,0.1-0.4,0-0.5-0.1c-0.1-0.2,0-0.4,0.1-0.5l2.9-1.6
				c1.6-1,2.8-0.1,2.9-0.1s8.6,4.8,9.8,5.5c0.5,0.3,0.7,0.6,0.7,1c0,0.6-0.5,1-0.6,1.1c-0.3,0.2-7.2,4-8.1,4.5
				C279.9,413.6,279.5,413.7,279.1,413.7z"/>
		</g>
		<g>
			<path class="st4" d="M294.1,422.3c-0.7,0-1.2-0.2-1.3-0.3c-0.1,0-2.3-1.3-4.7-2.7c-0.2-0.1-0.2-0.3-0.1-0.5s0.3-0.2,0.5-0.1
				c2.5,1.4,4.7,2.7,4.7,2.7l0,0c0,0,0.9,0.4,1.8,0c1-0.5,8-4.5,8.1-4.5c0.1-0.1,0.3-0.3,0.3-0.5s-0.2-0.3-0.4-0.4
				c-1.2-0.7-9.7-5.4-9.8-5.5c-0.1,0-1-0.7-2.1,0.1l-2.3,1.4c-0.2,0.1-0.4,0-0.5-0.1c-0.1-0.2,0-0.4,0.1-0.5l2.3-1.4
				c1.6-1,2.8-0.1,2.9-0.1s8.6,4.8,9.8,5.5c0.5,0.3,0.7,0.6,0.7,1c0,0.6-0.5,1-0.6,1.1c-0.3,0.2-7.2,4-8.1,4.5
				C294.9,422.2,294.5,422.3,294.1,422.3z"/>
		</g>
		<g>
			<path class="st4" d="M308.9,430.3c-0.8,0-1.5-0.4-1.5-0.5l0,0c0,0-2.3-1.3-4.8-2.7c-0.2-0.1-0.2-0.3-0.1-0.5s0.3-0.2,0.5-0.1
				c2.5,1.4,4.8,2.7,4.8,2.7c0.1,0,1,0.7,1.9,0.1c1-0.5,8-4.5,8.1-4.5c0.1-0.1,0.3-0.3,0.3-0.5s-0.2-0.3-0.4-0.4
				c-1.2-0.7-9.7-5.4-9.8-5.5c-0.1,0-1-0.7-2.1,0.1l-1.9,1.1c-0.2,0.1-0.4,0-0.5-0.1c-0.1-0.2,0-0.4,0.1-0.5l1.9-1.1
				c1.6-1,2.8-0.1,2.9-0.1s8.6,4.8,9.8,5.5c0.5,0.3,0.7,0.6,0.7,1c0,0.6-0.5,1-0.6,1.1c-0.3,0.2-7.2,4-8.1,4.5
				C309.7,430.3,309.3,430.3,308.9,430.3z"/>
		</g>
		<g>
			<path class="st4" d="M324,438.8c-0.7,0-1.2-0.2-1.3-0.3c-0.1,0-3.3-1.8-5.9-3.4c-0.2-0.1-0.2-0.3-0.1-0.5s0.3-0.2,0.5-0.1
				c2.7,1.6,5.9,3.4,5.9,3.4l0,0c0,0,0.9,0.4,1.8,0c1-0.5,8-4.5,8.1-4.5c0.1-0.1,0.3-0.3,0.3-0.5s-0.2-0.3-0.4-0.4
				c-1.2-0.7-9.7-5.4-9.8-5.5c-0.1,0-1-0.7-2.1,0.1l-2.7,1.5c-0.2,0.1-0.4,0-0.5-0.1c-0.1-0.2,0-0.4,0.1-0.5l2.7-1.5
				c1.6-1,2.8-0.1,2.9-0.1s8.6,4.8,9.8,5.5c0.5,0.3,0.7,0.6,0.7,1c0,0.6-0.5,1-0.6,1.1c-0.3,0.2-7.2,4-8.1,4.5
				C324.8,438.7,324.4,438.8,324,438.8z"/>
		</g>
		<g>
			<path class="st4" d="M338.8,447.3c-0.7,0-1.2-0.2-1.3-0.3c0,0-2.3-1.2-4.5-2.6c-0.2-0.1-0.2-0.3-0.1-0.5s0.3-0.2,0.5-0.1
				c2.3,1.4,4.5,2.6,4.5,2.6l0,0c0,0,0.9,0.4,1.8,0c1-0.5,8-4.5,8.1-4.5c0.1-0.1,0.3-0.3,0.3-0.5s-0.2-0.3-0.4-0.4
				c-1.2-0.7-9.7-5.4-9.8-5.5c-0.1,0-1-0.7-2.1,0.1l-2.2,1.2c-0.2,0.1-0.4,0-0.5-0.1s0-0.4,0.1-0.5l2.2-1.2c1.6-1,2.8-0.1,2.9-0.1
				s8.6,4.8,9.8,5.5c0.5,0.3,0.7,0.6,0.7,1c0,0.6-0.5,1-0.6,1.1c-0.3,0.2-7.2,4-8.1,4.5C339.6,447.2,339.2,447.3,338.8,447.3z"/>
		</g>
		<g>
			<path class="st4" d="M354.1,456c-0.7,0-1.2-0.2-1.3-0.3c0,0-2.5-1.3-4.7-2.7c-0.2-0.1-0.2-0.3-0.1-0.5s0.3-0.2,0.5-0.1
				c2.3,1.4,4.7,2.7,4.7,2.7l0,0c0,0,0.9,0.4,1.8,0c1-0.5,8-4.5,8.1-4.5c0.1-0.1,0.3-0.3,0.3-0.5s-0.2-0.3-0.4-0.4
				c-1.2-0.7-9.7-5.4-9.8-5.5c-0.1,0-1-0.7-2.1,0.1l-4.3,2.3c-0.2,0.1-0.4,0-0.5-0.1c-0.1-0.2,0-0.4,0.1-0.5l4.3-2.3
				c1.6-1,2.8-0.1,2.9-0.1s8.6,4.8,9.8,5.5c0.5,0.3,0.7,0.6,0.7,1c0,0.6-0.5,1-0.6,1.1c-0.3,0.2-7.2,4-8.2,4.5
				C354.9,455.9,354.5,456,354.1,456z"/>
		</g>
		<g>
			<path class="st4" d="M369.3,465.2c-0.7,0-1.2-0.2-1.3-0.3c0,0-2.4-1.4-4.9-2.9c-0.2-0.1-0.2-0.3-0.1-0.5s0.3-0.2,0.5-0.1
				c2.5,1.5,4.9,2.9,4.9,2.9l0,0c0,0,0.9,0.4,1.8,0c1-0.5,8-4.5,8.1-4.5c0.1-0.1,0.3-0.3,0.3-0.5s-0.2-0.3-0.4-0.4
				c-1.2-0.7-9.7-5.4-9.8-5.5c-0.1,0-1-0.7-2.1,0.1l-3.2,1.8c-0.2,0.1-0.4,0-0.5-0.1s0-0.4,0.1-0.5l3.2-1.8c1.6-1,2.8-0.1,2.9-0.1
				s8.6,4.8,9.8,5.5c0.5,0.3,0.7,0.6,0.7,1c0,0.6-0.5,1-0.6,1.1c-0.3,0.2-7.2,4-8.2,4.5C370.1,465.1,369.7,465.2,369.3,465.2z"/>
		</g>
		<g>
			<path class="st4" d="M384.7,474.4c-0.7,0-1.2-0.2-1.3-0.3c-0.1,0-2.3-1.3-4.7-2.7c-0.2-0.1-0.2-0.3-0.1-0.5s0.3-0.2,0.5-0.1
				c2.5,1.4,4.7,2.7,4.7,2.7l0,0c0,0,0.9,0.4,1.8,0c1-0.5,8-4.5,8.1-4.5c0.1-0.1,0.3-0.3,0.3-0.5s-0.2-0.3-0.4-0.4
				c-1.2-0.7-9.7-5.4-9.8-5.5c-0.1,0-1-0.7-2.1,0.1l-4,2.2c-0.2,0.1-0.4,0-0.5-0.1c-0.1-0.2,0-0.4,0.1-0.5l4-2.2
				c1.6-1,2.8-0.1,2.9-0.1s8.6,4.8,9.8,5.5c0.5,0.3,0.7,0.6,0.7,1c0,0.6-0.5,1-0.6,1.1c-0.3,0.2-7.2,4-8.1,4.5
				C385.5,474.3,385.1,474.4,384.7,474.4z"/>
		</g>
		<g>
			<path class="st4" d="M401,483.6c-0.7,0-1.2-0.2-1.3-0.3c0,0-1.5-0.8-3-1.8c-0.2-0.1-0.2-0.3-0.1-0.5s0.3-0.2,0.5-0.1
				c1.6,1,3,1.8,3,1.8l0,0c0,0,0.9,0.4,1.8,0c1-0.5,8-4.5,8.1-4.5c0.1-0.1,0.3-0.3,0.3-0.5s-0.2-0.3-0.4-0.4
				c-1.2-0.7-9.7-5.4-9.8-5.5c-0.1,0-1-0.7-2.1,0.1l-4.7,2.6c-0.2,0.1-0.4,0-0.5-0.1c-0.1-0.2,0-0.4,0.1-0.5l4.7-2.6
				c1.6-1,2.8-0.1,2.9-0.1s8.6,4.8,9.8,5.5c0.5,0.3,0.7,0.6,0.7,1c0,0.6-0.5,1-0.6,1.1c-0.3,0.2-7.2,4-8.1,4.5
				C401.8,483.5,401.4,483.6,401,483.6z"/>
		</g>
		<g>
			<path class="st4" d="M433.9,503.5c-0.7,0-1.2-0.2-1.2-0.3c-0.1,0-3.5-2.1-7.8-4.7c-0.2-0.1-0.2-0.3-0.1-0.5s0.3-0.2,0.5-0.1
				c4.3,2.6,7.7,4.7,7.8,4.7l0,0c0,0,0.9,0.4,1.8,0c0.5-0.3,20.7-12.7,20.9-12.8c0.1-0.1,0.3-0.3,0.3-0.5s-0.2-0.3-0.4-0.4
				c-1.2-0.7-9.7-5.4-9.8-5.5c-0.1,0-1-0.7-2.1,0.1L432,491l-0.2-0.1c-6.2-3.7-15.7-9.3-15.7-9.3c-0.1,0-1-0.7-2.1,0.1l-2.6,1.4
				c-0.2,0.1-0.4,0-0.5-0.1c-0.1-0.2,0-0.4,0.1-0.5l2.6-1.4c1.6-1,2.8-0.1,2.9-0.1l0,0c0,0,9.3,5.5,15.5,9.2l11.2-7.3
				c1.6-1,2.8-0.1,2.9-0.1s8.6,4.8,9.8,5.5c0.5,0.3,0.7,0.6,0.7,1c0,0.6-0.5,1-0.6,1.1c-0.9,0.5-20.4,12.5-20.9,12.8
				C434.7,503.4,434.3,503.5,433.9,503.5z"/>
		</g>
		<g>
			<path class="st4" d="M262.4,404.1c-0.7,0-1.2-0.2-1.3-0.3c-0.2-0.1-16.3-9.7-24.9-14.7c-0.2-0.1-0.2-0.3-0.1-0.5
				c0.1-0.2,0.3-0.2,0.5-0.1c8.6,5,24.7,14.6,24.9,14.7l0,0c0,0,0.9,0.4,1.8,0c1-0.5,8-4.5,8.1-4.5c0.1-0.1,0.3-0.3,0.3-0.5
				s-0.2-0.3-0.4-0.4c-1.2-0.7-30.1-17.5-30.1-17.5c-0.1,0-1-0.7-2.1,0.1l-4,2.3c-0.2,0.1-0.4,0-0.5-0.1c-0.1-0.2,0-0.4,0.1-0.5
				l4-2.3c1.6-1,2.8-0.1,2.9-0.1l0,0c0,0,28.9,16.8,30.1,17.5c0.5,0.3,0.7,0.6,0.7,1c0,0.6-0.5,1-0.6,1.1c-0.3,0.2-7.2,4-8.1,4.5
				C263.2,404,262.8,404.1,262.4,404.1z"/>
		</g>
		<g>
			<path class="st4" d="M251.6,412.9c-0.7,0-1.2-0.2-1.3-0.3c0,0-4.3-2.5-7.3-4.3c-0.2-0.1-0.2-0.3-0.1-0.5c0.1-0.2,0.3-0.2,0.5-0.1
				c3,1.8,7.3,4.3,7.3,4.3l0,0c0,0,0.9,0.4,1.8,0c1-0.5,8-4.5,8.1-4.5c0.1-0.1,0.3-0.3,0.3-0.5s-0.2-0.3-0.4-0.4
				c-1.2-0.7-9.7-5.4-9.8-5.5c-0.1,0-1-0.7-2.1,0.1l-5.2,3c-0.2,0.1-0.4,0-0.5-0.1c-0.1-0.2,0-0.4,0.1-0.5l5.2-3
				c1.6-1,2.8-0.1,2.9-0.1c0.1,0,8.6,4.8,9.8,5.5c0.5,0.3,0.7,0.6,0.7,1c0,0.6-0.5,1-0.6,1.1c-0.3,0.2-7.2,4-8.1,4.5
				C252.4,412.8,252,412.9,251.6,412.9z"/>
		</g>
		<g>
			<path class="st4" d="M265.8,421.7c-0.7,0-1.2-0.2-1.3-0.3c-0.1,0-3.3-1.8-5.9-3.4c-0.2-0.1-0.2-0.3-0.1-0.5s0.3-0.2,0.5-0.1
				c2.7,1.6,5.9,3.4,5.9,3.4l0,0c0,0,0.9,0.4,1.8,0c1-0.5,8-4.5,8.1-4.5c0.1-0.1,0.3-0.3,0.3-0.5s-0.2-0.3-0.4-0.4
				c-1.2-0.7-9.7-5.4-9.8-5.5c-0.1,0-1-0.7-2.1,0.1l-3.4,1.9c-0.2,0.1-0.4,0-0.5-0.1c-0.1-0.2,0-0.4,0.1-0.5l3.4-1.9
				c1.6-1,2.8-0.1,2.9-0.1s8.6,4.8,9.8,5.5c0.5,0.3,0.7,0.6,0.7,1c0,0.6-0.5,1-0.6,1.1c-0.3,0.2-7.2,4-8.1,4.5
				C266.6,421.6,266.2,421.7,265.8,421.7z"/>
		</g>
		<g>
			<path class="st4" d="M280.9,430.5c-0.7,0-1.2-0.2-1.3-0.3c0,0-2.5-1.3-4.7-2.7c-0.2-0.1-0.2-0.3-0.1-0.5s0.3-0.2,0.5-0.1
				c2.3,1.4,4.7,2.7,4.7,2.7l0,0c0,0,0.9,0.4,1.8,0c1-0.5,8-4.5,8.1-4.5c0.1-0.1,0.3-0.3,0.3-0.5s-0.2-0.3-0.4-0.4
				c-1.2-0.7-9.7-5.4-9.8-5.5c-0.1,0-1-0.7-2.1,0.1l-4.3,2.5c-0.2,0.1-0.4,0-0.5-0.1c-0.1-0.2,0-0.4,0.1-0.5l4.3-2.5
				c1.6-1,2.8-0.1,2.9-0.1s8.6,4.8,9.8,5.5c0.5,0.3,0.7,0.6,0.7,1c0,0.6-0.5,1-0.6,1.1c-0.3,0.2-7.2,4-8.1,4.5
				C281.7,430.4,281.3,430.5,280.9,430.5z"/>
		</g>
		<g>
			<path class="st4" d="M295.8,438.3c-0.8,0-1.5-0.4-1.5-0.5l0,0c0,0-1.9-1-4-2.2c-0.2-0.1-0.2-0.3-0.1-0.5s0.3-0.2,0.5-0.1
				c2.1,1.2,4,2.2,4,2.2c0.1,0,1.1,0.7,1.9,0.1c1-0.5,8-4.5,8.1-4.5c0.1-0.1,0.3-0.3,0.3-0.5s-0.2-0.3-0.4-0.4
				c-1.2-0.7-9.7-5.4-9.8-5.5c-0.1,0-1-0.7-2.1,0.1l-4,2.2c-0.2,0.1-0.4,0-0.5-0.1c-0.1-0.2,0-0.4,0.1-0.5l4-2.2
				c1.6-1,2.8-0.1,2.9-0.1s8.6,4.8,9.8,5.5c0.5,0.3,0.7,0.6,0.7,1c0,0.6-0.5,1-0.6,1.1c-0.3,0.2-7.2,4-8.1,4.5
				C296.6,438.3,296.2,438.3,295.8,438.3z"/>
		</g>
		<g>
			<path class="st4" d="M310.6,446.9c-0.7,0-1.2-0.2-1.3-0.3c0,0-1.7-1-3.8-2.2c-0.2-0.1-0.2-0.3-0.1-0.5s0.3-0.2,0.5-0.1
				c2.1,1.2,3.8,2.2,3.8,2.2l0,0c0,0,0.9,0.4,1.8,0c1-0.5,8-4.5,8.1-4.5c0.1-0.1,0.3-0.3,0.3-0.5s-0.2-0.3-0.4-0.4
				c-1.2-0.7-9.7-5.4-9.8-5.5c-0.1,0-1-0.7-2.1,0.1l-3.4,1.9c-0.2,0.1-0.4,0-0.5-0.1c-0.1-0.2,0-0.4,0.1-0.5l3.4-1.9
				c1.6-1,2.8-0.1,2.9-0.1s8.6,4.8,9.8,5.5c0.5,0.3,0.7,0.6,0.7,1c0,0.6-0.5,1-0.6,1.1c-0.3,0.2-7.2,4-8.1,4.5
				C311.4,446.8,311,446.9,310.6,446.9z"/>
		</g>
		<g>
			<path class="st4" d="M325.5,455.4c-0.7,0-1.2-0.2-1.3-0.3c-0.1,0-1.6-1-3.4-2.1c-0.2-0.1-0.2-0.3-0.1-0.5s0.3-0.2,0.5-0.1
				c1.9,1.1,3.4,2.1,3.4,2.1l0,0c0,0,0.9,0.4,1.7,0c1-0.5,8-4.5,8.1-4.5c0.1-0.1,0.3-0.3,0.3-0.5s-0.2-0.3-0.4-0.4
				c-1.2-0.7-9.7-5.4-9.8-5.5c-0.1,0-1-0.7-2.1,0.1l-2.5,1.4c-0.2,0.1-0.4,0-0.5-0.1c-0.1-0.2,0-0.4,0.1-0.5l2.5-1.4
				c1.6-1,2.8-0.1,2.9-0.1s8.6,4.8,9.8,5.5c0.5,0.3,0.7,0.6,0.7,1c0,0.6-0.5,1-0.6,1.1c-0.3,0.2-7.2,4-8.1,4.5
				C326.3,455.3,325.9,455.4,325.5,455.4z"/>
		</g>
		<g>
			<path class="st4" d="M340.9,464.2c-0.7,0-1.2-0.2-1.3-0.3c-0.1,0-2.2-1.2-4.4-2.6c-0.2-0.1-0.2-0.3-0.1-0.5s0.3-0.2,0.5-0.1
				c2.3,1.4,4.4,2.6,4.4,2.6l0,0c0,0,0.9,0.4,1.8,0c1-0.5,8-4.5,8.1-4.5c0.1-0.1,0.3-0.3,0.3-0.5s-0.2-0.3-0.4-0.4
				c-1.2-0.7-9.7-5.4-9.8-5.5c-0.1,0-1-0.7-2.1,0.1l-2.9,1.6c-0.2,0.1-0.4,0-0.5-0.1c-0.1-0.2,0-0.4,0.1-0.5l2.9-1.6
				c1.6-1,2.8-0.1,2.9-0.1s8.6,4.8,9.8,5.5c0.5,0.3,0.7,0.6,0.7,1c0,0.6-0.5,1-0.6,1.1c-0.3,0.2-7.2,4-8.1,4.5
				C341.7,464.1,341.3,464.2,340.9,464.2z"/>
		</g>
		<g>
			<path class="st4" d="M356,473.3c-0.7,0-1.2-0.2-1.3-0.3c-0.1,0-2.4-1.5-4.8-2.9c-0.2-0.1-0.2-0.3-0.1-0.5s0.3-0.2,0.5-0.1
				c2.5,1.4,4.8,2.9,4.8,2.9l0,0c0,0,0.9,0.4,1.7,0c1-0.5,8-4.5,8.1-4.5c0.1-0.1,0.3-0.3,0.3-0.5s-0.2-0.3-0.4-0.4
				c-1.2-0.7-9.7-5.4-9.8-5.5c-0.1,0-1-0.7-2.1,0.1l-2.6,1.5c-0.2,0.1-0.4,0-0.5-0.1c-0.1-0.2,0-0.4,0.1-0.5l2.6-1.5
				c1.6-1,2.8-0.1,2.9-0.1s8.6,4.8,9.8,5.5c0.5,0.3,0.7,0.6,0.7,1c0,0.6-0.5,1-0.6,1.1c-0.3,0.2-7.2,4-8.1,4.5
				C356.8,473.2,356.4,473.3,356,473.3z"/>
		</g>
		<g>
			<path class="st4" d="M371.4,482.5c-0.7,0-1.2-0.2-1.3-0.3c-0.1,0-1.7-1-3.7-2.2c-0.2-0.1-0.2-0.3-0.1-0.5s0.3-0.2,0.5-0.1
				c2.1,1.2,3.7,2.2,3.7,2.2l0,0c0,0,0.9,0.4,1.8,0c1-0.5,8-4.5,8.1-4.5c0.1-0.1,0.3-0.3,0.3-0.5s-0.2-0.3-0.4-0.4
				c-1.2-0.7-9.7-5.4-9.8-5.5c-0.1,0-1-0.7-2.1,0.1l-1.9,1.1c-0.2,0.1-0.4,0-0.5-0.1c-0.1-0.2,0-0.4,0.1-0.5l1.9-1.1
				c1.6-1,2.8-0.1,2.9-0.1c0,0,8.6,4.8,9.8,5.5c0.5,0.3,0.7,0.6,0.7,1c0,0.6-0.5,1-0.6,1.1c-0.3,0.2-7.2,4-8.2,4.5
				C372.2,482.4,371.8,482.5,371.4,482.5z"/>
		</g>
		<g>
			<path class="st4" d="M397.3,497.9c-0.7,0-1.2-0.2-1.3-0.3c-0.1-0.1-4.3-2.8-8.7-5.4c-0.2-0.1-0.2-0.3-0.1-0.5s0.3-0.2,0.5-0.1
				c4.4,2.7,8.6,5.4,8.7,5.4l0,0c0,0,0.9,0.4,1.8,0c1-0.5,8-4.5,8.1-4.5c0.1-0.1,0.3-0.3,0.3-0.5s-0.2-0.3-0.4-0.4
				c-1.2-0.7-19.3-11.6-19.5-11.7c-0.1,0-1-0.7-2.1,0.1l-2.2,1.2c-0.2,0.1-0.4,0-0.5-0.1c-0.1-0.2,0-0.4,0.1-0.5l2.2-1.2
				c1.6-1,2.8-0.1,2.9-0.1c0.2,0.1,18.3,11,19.5,11.7c0.5,0.3,0.7,0.6,0.7,1c0,0.6-0.5,1-0.6,1.1c-0.3,0.2-7.2,4-8.2,4.5
				C398.1,497.8,397.7,497.9,397.3,497.9z"/>
		</g>
		<g>
			<path class="st4" d="M420.7,511.5c-0.7,0-1.2-0.2-1.3-0.3c-0.1,0-2.9-1.6-6.2-3.7c-0.2-0.1-0.2-0.3-0.1-0.5s0.3-0.2,0.5-0.1
				c3.3,2.1,6.1,3.7,6.2,3.7l0,0c0,0,0.9,0.4,1.8,0c1-0.5,8-4.5,8.1-4.5c0.1-0.1,0.3-0.3,0.3-0.5s-0.2-0.3-0.4-0.4
				c-1.2-0.7-16.6-9.6-16.6-9.6c-0.1,0-1-0.7-2.1,0.1l-2.7,1.5c-0.2,0.1-0.4,0-0.5-0.1c-0.1-0.2,0-0.4,0.1-0.5l2.7-1.5
				c1.6-1,2.8-0.1,2.9-0.1l0,0c0,0,15.4,8.9,16.6,9.6c0.5,0.3,0.7,0.6,0.7,1c0,0.6-0.5,1-0.6,1.1c-0.3,0.2-7.2,4-8.1,4.5
				C421.5,511.4,421.1,511.5,420.7,511.5z"/>
		</g>
		<g>
			<path class="st4" d="M235.5,403.9c-0.7,0-1.2-0.2-1.3-0.3c-0.1-0.1-8.5-4.9-13.2-7.6c-0.2-0.1-0.2-0.3-0.1-0.5
				c0.1-0.2,0.3-0.2,0.5-0.1c4.7,2.7,13.1,7.5,13.2,7.6l0,0c0,0,0.9,0.4,1.8,0c1-0.5,8-4.5,8.1-4.5c0.1-0.1,0.3-0.3,0.3-0.5
				s-0.2-0.3-0.4-0.4c-1.2-0.7-16.2-9.1-16.4-9.2c-0.1,0-1-0.7-2.1,0.1l-4.9,2.7c-0.2,0.1-0.4,0-0.5-0.1c-0.1-0.2,0-0.4,0.1-0.5
				l4.9-2.7c1.6-1,2.8-0.1,2.9-0.1c0.1,0.1,15.2,8.5,16.4,9.2c0.5,0.3,0.7,0.6,0.7,1c0,0.6-0.5,1-0.6,1.1c-0.3,0.2-7.2,4-8.1,4.5
				C236.3,403.8,235.9,403.9,235.5,403.9z"/>
		</g>
		<g>
			<path class="st4" d="M238.4,421.5c-0.7,0-1.2-0.2-1.3-0.3c0,0-3.1-1.8-5.8-3.4c-0.2-0.1-0.2-0.3-0.1-0.5c0.1-0.2,0.3-0.2,0.5-0.1
				c2.7,1.6,5.8,3.4,5.8,3.4l0,0c0,0,0.9,0.4,1.8,0c1-0.5,8-4.5,8.1-4.5c0.1-0.1,0.3-0.3,0.3-0.5s-0.2-0.3-0.4-0.4
				c-1.2-0.7-9.7-5.4-9.8-5.5c-0.1,0-1-0.7-2.1,0.1l-5.1,2.9c-0.2,0.1-0.4,0-0.5-0.1c-0.1-0.2,0-0.4,0.1-0.5l5.1-2.9
				c1.6-1,2.8-0.1,2.9-0.1c0.1,0,8.6,4.8,9.8,5.5c0.5,0.3,0.7,0.6,0.7,1c0,0.6-0.5,1-0.6,1.1c-0.3,0.2-7.2,4-8.1,4.5
				C239.2,421.4,238.8,421.5,238.4,421.5z"/>
		</g>
		<g>
			<path class="st4" d="M252.5,430.6c-0.7,0-1.2-0.2-1.3-0.3c-0.1,0-3.4-2.1-6.2-3.7c-0.2-0.1-0.2-0.3-0.1-0.5
				c0.1-0.2,0.3-0.2,0.5-0.1c2.9,1.6,6.1,3.7,6.2,3.7l0,0c0,0,0.9,0.4,1.8,0c1-0.5,8-4.5,8.1-4.5c0.1-0.1,0.3-0.3,0.3-0.5
				s-0.2-0.3-0.4-0.4c-1.2-0.7-9.7-5.4-9.8-5.5c-0.1,0-1-0.7-2.1,0.1l-5.4,3c-0.2,0.1-0.4,0-0.5-0.1c-0.1-0.2,0-0.4,0.1-0.5l5.4-3
				c1.6-1,2.8-0.1,2.9-0.1c0.1,0,8.6,4.8,9.8,5.5c0.5,0.3,0.7,0.6,0.7,1c0,0.6-0.5,1-0.6,1.1c-0.3,0.2-7.2,4-8.1,4.5
				C253.3,430.5,252.9,430.6,252.5,430.6z"/>
		</g>
		<g>
			<path class="st4" d="M342.8,481.9c-0.7,0-1.2-0.2-1.3-0.3c-0.6-0.3-55.5-31.7-76-43.4c-0.2-0.1-0.2-0.3-0.1-0.5s0.3-0.2,0.5-0.1
				c20.6,11.7,75.4,43.1,76,43.4l0,0c0,0,0.9,0.4,1.8,0c1-0.5,8-4.5,8.1-4.5c0.1-0.1,0.3-0.3,0.3-0.5s-0.2-0.3-0.4-0.4
				c-1.2-0.7-82.9-47.1-83.7-47.6c-0.1,0-1-0.7-2.1,0.1l-4.3,2.3c-0.2,0.1-0.4,0-0.5-0.1c-0.1-0.2,0-0.4,0.1-0.5l4.3-2.3
				c1.6-1,2.8-0.1,2.9-0.1c0.8,0.4,82.5,46.9,83.7,47.6c0.5,0.3,0.7,0.6,0.7,1c0,0.6-0.5,1-0.6,1.1c-0.3,0.2-7.2,4-8.1,4.5
				C343.6,481.8,343.2,481.9,342.8,481.9z"/>
		</g>
		<g>
			<path class="st4" d="M358.2,491.2c-0.7,0-1.2-0.2-1.3-0.3c0,0-1.9-1.1-4-2.3c-0.2-0.1-0.2-0.3-0.1-0.5s0.3-0.2,0.5-0.1
				c2.1,1.2,4,2.3,4,2.3l0,0c0,0,0.9,0.4,1.8,0c1-0.5,8-4.5,8.1-4.5c0.1-0.1,0.3-0.3,0.3-0.5s-0.2-0.3-0.4-0.4
				c-1.2-0.7-9.7-5.4-9.8-5.5c-0.1,0-1-0.7-2.1,0.1l-3.8,2.2c-0.2,0.1-0.4,0-0.5-0.1c-0.1-0.2,0-0.4,0.1-0.5l3.8-2.2
				c1.6-1,2.8-0.1,2.9-0.1s8.6,4.8,9.8,5.5c0.5,0.3,0.7,0.6,0.7,1c0,0.6-0.5,1-0.6,1.1c-0.3,0.2-7.2,4-8.1,4.5
				C359,491.1,358.6,491.2,358.2,491.2z"/>
		</g>
		<g>
			<path class="st4" d="M374.3,500.3c-0.7,0-1.2-0.2-1.3-0.3c-0.1,0-1.7-1-3.7-2.2c-0.2-0.1-0.2-0.3-0.1-0.5s0.3-0.2,0.5-0.1
				c2.1,1.2,3.7,2.2,3.7,2.2l0,0c0,0,0.9,0.4,1.8,0c1-0.5,8-4.5,8.1-4.5c0.1-0.1,0.3-0.3,0.3-0.5s-0.2-0.3-0.4-0.4
				c-1.2-0.7-9.7-5.4-9.8-5.5c-0.1,0-1-0.7-2.1,0.1l-4,2.2c-0.2,0.1-0.4,0-0.5-0.1c-0.1-0.2,0-0.4,0.1-0.5l4-2.2
				c1.6-1,2.8-0.1,2.9-0.1s8.6,4.8,9.8,5.5c0.5,0.3,0.7,0.6,0.7,1c0,0.6-0.5,1-0.6,1.1c-0.3,0.2-7.2,4-8.2,4.5
				C375.1,500.2,374.7,500.3,374.3,500.3z"/>
		</g>
		<g>
			<path class="st4" d="M390.7,510.3c-0.7,0-1.2-0.2-1.3-0.3c-0.1,0-2.2-1.3-4.3-2.5c-0.2-0.1-0.2-0.3-0.1-0.5s0.3-0.2,0.5-0.1
				c2.2,1.2,4.3,2.5,4.3,2.5l0,0c0,0,0.9,0.4,1.8,0c1-0.5,8-4.5,8.1-4.5c0.1-0.1,0.3-0.3,0.3-0.5s-0.2-0.3-0.4-0.4
				c-1.2-0.7-9.7-5.4-9.8-5.5c-0.1,0-1-0.7-2.1,0.1l-3.3,1.9c-0.2,0.1-0.4,0-0.5-0.1c-0.1-0.2,0-0.4,0.1-0.5l3.3-1.9
				c1.6-1,2.8-0.1,2.9-0.1s8.6,4.8,9.8,5.5c0.5,0.3,0.7,0.6,0.7,1c0,0.6-0.5,1-0.6,1.1c-0.3,0.2-7.2,4-8.1,4.5
				C391.5,510.2,391.1,510.3,390.7,510.3z"/>
		</g>
		<g>
			<path class="st4" d="M407.3,520.3c-0.7,0-1.2-0.2-1.3-0.3c0,0-1.4-0.8-3.2-1.9c-0.2-0.1-0.2-0.3-0.1-0.5s0.3-0.2,0.5-0.1
				c1.8,1.1,3.2,1.9,3.2,1.9l0,0c0,0,0.9,0.4,1.8,0c1-0.5,8-4.5,8.1-4.5c0.1-0.1,0.3-0.3,0.3-0.5s-0.2-0.3-0.4-0.4
				c-1.2-0.7-9.7-5.4-9.8-5.5c-0.1,0-1-0.7-2.1,0.1l-3.3,1.9c-0.2,0.1-0.4,0-0.5-0.1c-0.1-0.2,0-0.4,0.1-0.5l3.3-1.9
				c1.6-1,2.8-0.1,2.9-0.1s8.6,4.8,9.8,5.5c0.5,0.3,0.7,0.6,0.7,1c0,0.6-0.5,1-0.6,1.1c-0.3,0.2-7.2,4-8.2,4.5
				C408.1,520.2,407.7,520.3,407.3,520.3z"/>
		</g>
		<g>
			<path class="st4" d="M222.1,412.5c-0.7,0-1.2-0.2-1.3-0.3c-0.1,0-4.4-2.5-8.4-4.8c-0.2-0.1-0.2-0.3-0.1-0.5
				c0.1-0.2,0.3-0.2,0.5-0.1c4,2.3,8.3,4.8,8.4,4.8l0,0c0,0,0.9,0.4,1.8,0c1-0.5,8-4.5,8.1-4.5c0.1-0.1,0.3-0.3,0.3-0.5
				s-0.2-0.3-0.4-0.4c-1.2-0.7-16.2-9.1-16.4-9.2c-0.1,0-1-0.7-2.1,0.1l-5.6,3.2c-0.2,0.1-0.4,0-0.5-0.1c-0.1-0.2,0-0.4,0.1-0.5
				l5.6-3.2c1.6-1,2.8-0.1,2.9-0.1c0.1,0.1,15.2,8.5,16.4,9.2c0.5,0.3,0.7,0.6,0.7,1c0,0.6-0.5,1-0.6,1.1c-0.3,0.2-7.2,4-8.1,4.5
				C222.9,412.4,222.5,412.5,222.1,412.5z"/>
		</g>
		<g>
			<path class="st4" d="M288.7,511.9c-2.1,0-4.1-1.1-4.2-1.1c-3.1-1.8-76-42.8-79.7-45.4c-1.1-0.8-1.6-1.6-1.6-2.5
				c0.1-1.2,1.2-1.9,1.3-1.9l42.6-25.7c2.2-1.6,4.9-0.1,5,0c3.2,1.8,78.6,44.5,81.8,46.7c1.3,0.9,1.9,1.9,1.8,2.8
				c-0.1,1.2-1.3,1.9-1.4,1.9c-0.4,0.2-41,23.1-43.3,24.6C290.4,511.7,289.5,511.9,288.7,511.9z M249.4,435.2
				c-0.6,0-1.3,0.1-1.9,0.6l0,0l-42.6,25.7c0,0-0.9,0.6-0.9,1.4c0,0.6,0.4,1.2,1.3,1.8c3.7,2.6,78.9,45,79.7,45.4c0,0,3.6,2,5.8,0.5
				c2.3-1.5,41.6-23.7,43.3-24.6c0,0,1-0.5,1-1.4c0-0.7-0.5-1.4-1.5-2.1c-3.1-2.2-81-46.2-81.8-46.7
				C251.7,435.8,250.6,435.2,249.4,435.2z M247.3,435.5L247.3,435.5L247.3,435.5z"/>
		</g>
		<polygon class="st6" points="407.7,352.8 435.5,368.9 442.4,364.9 414.6,348.9 		"/>
		<polygon class="st7" points="407.7,352.8 407.7,361 435.4,377 435.5,368.9 		"/>
		<polygon class="st8" points="442.4,364.9 442.4,372.8 435.4,376.8 435.5,368.9 		"/>
		<polygon class="st9" points="242.3,234 267.8,248.7 274.2,245.1 248.5,230.4 		"/>
		<polygon class="st10" points="242.3,234 242.3,241.6 267.8,256.3 267.8,248.7 		"/>
		<polygon class="st11" points="274.2,245.1 274.1,252.4 267.8,256.1 267.8,248.7 		"/>
		<polygon class="st12" points="120.5,213.1 185.1,250.6 185,260.1 188.2,261.8 190.2,260.7 191.1,250.6 205.5,243.5 205.5,240.9 
			137.2,201.5 120.5,211.2 		"/>
		<polygon class="st13" points="120.5,211.2 120.4,231.2 178.7,264.9 188.3,259.4 188.3,250.5 		"/>
		<polygon class="st14" points="205.5,240.9 205.2,260.4 188,270.1 188.3,250.5 		"/>
		<polygon class="st12" points="243.7,124.4 243.7,125.7 268.2,139.8 268.2,146.1 269.1,146.7 270,146.1 270.8,139.8 275.6,136.8 
			275.6,135.6 249.9,120.8 		"/>
		<polygon class="st13" points="243.7,124.4 243.7,132 269.1,146.7 269.1,139.3 		"/>
		<polygon class="st14" points="275.6,135.6 275.5,143 269.1,146.7 269.1,139.3 		"/>
		<polygon class="st1" points="362.8,221.6 362.8,222.7 377.1,231.1 377.1,234.4 378,235 378.9,234.5 379,231.2 381.9,229.7 
			381.9,228.4 366.6,219.6 		"/>
		<polygon class="st15" points="362.8,221.8 362.8,226.2 378,235 378,230.6 		"/>
		<polygon class="st16" points="381.9,228.4 381.9,232.8 378,235 378,230.6 		"/>
		<path class="st5" d="M276.1,115.9c1,0,2.7,0.2,5.2,1.4c4.3,2.2,259.4,146,264.9,150c9.9,6.4,11.2,18.8,11.2,28.5
			c0,5.4,0,178.7,0,178.7s0,5.6-2.7,10.7"/>
		<polygon class="st1" points="542.5,331.3 542.5,333 560.1,343 560.2,347.1 561.3,347.7 562.4,347.1 562.3,343.4 566.1,341.6 
			566.1,339.4 547.1,328.6 		"/>
		<polygon class="st15" points="542.5,331.3 542.5,336.8 561.3,347.7 561.4,342.2 		"/>
		<polygon class="st16" points="566.1,339.6 566.1,344.9 561.3,347.7 561.4,342.2 		"/>
		<polygon class="st14" points="122.7,215.8 122.6,229 184.7,265.2 185,252 		"/>
		<polygon class="st12" points="134.1,222.4 122.6,228.9 122.7,215.7 		"/>
		<polygon class="st4" points="128.9,231.7 127.1,230.6 127.1,219 128.9,220 		"/>
		<polygon class="st17" points="128.9,231.7 129.5,231.4 129.5,219.7 128.9,220 		"/>
		<polygon class="st18" points="127.1,219 127.7,218.7 129.5,219.7 128.9,220 		"/>
		<polygon class="st14" points="178.7,261.8 178.7,264.9 187.5,259.8 184.9,258.3 184.9,258.3 		"/>
		<polygon class="st12" points="179.9,262.7 186.7,266.6 193.5,262.6 186.8,258.7 		"/>
		<polygon class="st13" points="179.9,262.7 179.9,269.9 186.7,273.6 186.7,266.6 		"/>
		<polygon class="st14" points="193.5,262.6 193.5,269.5 186.7,273.4 186.7,266.6 		"/>
		<polygon class="st13" points="184.9,258.2 184.9,259.8 188.3,261.8 188.3,254.9 		"/>
		<polygon class="st14" points="188.2,261.8 192.6,259.4 188.3,256.9 		"/>
		<polygon class="st12" points="501.8,378.5 501.8,379.9 567.2,418.4 567.4,427.8 569.5,429 571.4,427.9 572.2,416.8 586.7,411.3 
			586.7,408 518.4,368.9 		"/>
		<polygon class="st13" points="501.8,378.5 501.6,398.6 560.1,432.2 569.6,426.7 569.7,417.8 		"/>
		<polygon class="st14" points="586.7,408 586.6,427.7 569.4,437.5 569.7,417.8 		"/>
		<polygon class="st14" points="504,383.2 503.8,396.2 566.1,432.5 566.2,419.3 		"/>
		<polygon class="st12" points="515.4,389.8 503.8,396.2 504,383 		"/>
		<polygon class="st4" points="510.1,398.8 508.4,397.9 508.4,386.3 510.1,387.3 		"/>
		<polygon class="st17" points="510.1,399 510.7,398.6 510.7,387 510.1,387.3 		"/>
		<polygon class="st18" points="508.4,386.3 509,386 510.7,387 510.1,387.3 		"/>
		<polygon class="st14" points="560.2,429.1 560.1,432.2 568.9,427.2 566.1,425.6 566.1,425.6 		"/>
		<polygon class="st12" points="561.3,429.9 561.5,431.6 565.8,434.4 566.1,439.7 567.9,440.8 570.1,439.5 570.6,434.7 574.5,432 
			574.9,429.9 568,426.1 		"/>
		<polygon class="st13" points="561.3,429.9 561.3,437 567.9,440.8 567.9,433.7 		"/>
		<polygon class="st14" points="574.9,429.9 574.8,436.8 567.9,440.8 567.9,433.7 		"/>
		<polygon class="st13" points="566.2,425.1 566.1,427.2 569.5,428.9 569.6,422.2 		"/>
		<polygon class="st14" points="569.5,428.9 573.8,426.7 569.6,424.2 		"/>
		<polygon class="st9" points="364.6,287.7 399.9,308.2 408.8,303.1 373.2,282.8 		"/>
		<polygon class="st10" points="364.7,287.7 364.6,298.2 394.9,315.7 399.9,312.8 399.9,308.2 		"/>
		<polygon class="st19" points="408.8,303.1 408.7,313.3 399.7,318.4 399.9,308.2 		"/>
		<polygon class="st20" points="365.8,290.2 365.8,297.1 398,315.8 398.1,309.1 		"/>
		<polygon class="st19" points="371.7,293.7 365.7,297 365.8,290.1 		"/>
		<polygon class="st4" points="369,298.3 368.1,297.9 368.1,291.9 369,292.4 		"/>
		<polygon class="st17" points="369,298.5 369.2,298.2 369.2,292.1 369,292.4 		"/>
		<polygon class="st18" points="368.1,291.9 368.4,291.7 369.2,292.1 369,292.4 		"/>
		<polygon class="st19" points="394.9,314 394.9,315.8 399.5,313 398.1,312.2 398.1,312.2 		"/>
		<polygon class="st9" points="395.5,314.6 399.1,316.5 402.6,314.4 399.1,312.5 		"/>
		<polygon class="st10" points="395.5,314.6 395.5,318.3 398.9,320.2 399.1,316.5 		"/>
		<polygon class="st19" points="402.6,314.6 402.5,318.1 398.9,320.1 399.1,316.5 		"/>
		<polygon class="st10" points="398.1,312.2 398.1,313 399.9,314 399.9,310.4 		"/>
		<polygon class="st19" points="399.7,314 402.1,312.9 399.9,311.5 		"/>
		<polygon class="st6" points="283.7,203.1 331.8,231 343.9,224.1 295.5,196.2 		"/>
		<polygon class="st7" points="283.7,203.1 283.7,217.4 325.1,241.1 331.7,237.2 331.8,231 		"/>
		<polygon class="st8" points="343.9,224.1 343.8,238 331.7,244.9 331.8,231 		"/>
		<polygon class="st21" points="285.4,206.4 285.2,215.7 329.2,241.3 329.5,231.9 		"/>
		<polygon class="st8" points="293.5,211 285.2,215.6 285.2,206.2 		"/>
		<polygon class="st4" points="289.8,217.5 288.4,216.8 288.4,208.6 289.6,209.2 		"/>
		<polygon class="st17" points="289.6,217.5 290,217.4 290,209.1 289.6,209.2 		"/>
		<polygon class="st18" points="288.4,208.6 288.9,208.4 290,209.1 289.6,209.2 		"/>
		<polygon class="st8" points="325,238.9 325,241.1 331.3,237.6 329.4,236.5 329.4,236.5 		"/>
		<polygon class="st6" points="325.9,239.5 330.6,242.2 335.5,239.5 330.7,236.7 		"/>
		<polygon class="st7" points="325.9,239.5 325.9,244.6 330.6,247.2 330.6,242.2 		"/>
		<polygon class="st8" points="335.5,239.5 335.4,244.3 330.6,247.2 330.6,242.2 		"/>
		<polygon class="st7" points="329.4,236.5 329.4,237.6 331.7,238.8 331.8,234 		"/>
		<polygon class="st8" points="331.7,238.8 334.7,237.3 331.8,235.5 		"/>
		<g>
			<polygon class="st22" points="427.7,202.1 494.7,241 511.7,231.4 444.2,192.6 			"/>
			<polygon class="st23" points="427.7,202.1 427.5,221.9 485.3,255.2 494.6,249.8 494.7,241 			"/>
			<polygon class="st24" points="511.7,231.5 511.5,250.8 494.5,260.4 494.7,241 			"/>
			<polygon class="st25" points="429.9,206.6 429.7,219.7 491.2,255.4 491.4,242.5 			"/>
			<polygon class="st24" points="441.1,213.2 429.7,219.6 429.9,206.6 			"/>
			<polygon class="st4" points="436,222.3 434.3,221.2 434.3,209.8 435.9,210.8 			"/>
			<polygon class="st17" points="435.9,222.3 436.5,222 436.5,210.5 435.9,210.8 			"/>
			<polygon class="st18" points="434.3,209.8 434.8,209.5 436.5,210.5 435.9,210.8 			"/>
			<polygon class="st24" points="485.3,252.1 485.3,255.3 493.9,250.2 491.3,248.7 491.3,248.7 			"/>
			<polygon class="st22" points="486.5,253 493.1,256.8 500,253 493.2,249.1 			"/>
			<polygon class="st23" points="486.5,253 486.5,260.1 493.1,263.7 493.1,256.8 			"/>
			<polygon class="st24" points="500,253 499.8,259.7 493.1,263.5 493.1,256.8 			"/>
			<polygon class="st23" points="491.3,248.7 491.3,250.2 494.6,252 494.7,245.3 			"/>
			<polygon class="st24" points="494.6,252 498.9,249.8 494.7,247.3 			"/>
		</g>
		<g>
			<polygon class="st22" points="331.3,90.7 366.8,111.2 375.7,106.1 340.1,85.6 			"/>
			<polygon class="st23" points="331.4,90.7 331.3,101.2 361.7,118.6 366.6,115.8 366.8,111.2 			"/>
			<polygon class="st24" points="375.7,106.1 375.6,116.3 366.6,121.4 366.8,111.2 			"/>
			<polygon class="st25" points="332.5,93.1 332.5,99.9 364.8,118.8 365,111.9 			"/>
			<polygon class="st24" points="338.4,96.5 332.4,99.9 332.5,93.1 			"/>
			<polygon class="st4" points="335.7,101.3 334.9,100.8 334.9,94.7 335.7,95.3 			"/>
			<polygon class="st17" points="335.7,101.3 336,101.2 336,95.1 335.7,95.3 			"/>
			<polygon class="st18" points="334.9,94.7 335.1,94.6 336,95.1 335.7,95.3 			"/>
			<polygon class="st24" points="361.7,117 361.7,118.6 366.3,116 364.8,115.2 364.8,115.2 			"/>
			<polygon class="st22" points="362.4,117.5 365.8,119.5 369.4,117.4 365.8,115.5 			"/>
			<polygon class="st23" points="362.4,117.5 362.4,121.3 365.8,123.2 365.8,119.5 			"/>
			<polygon class="st24" points="369.4,117.4 369.4,121 365.8,123 365.8,119.5 			"/>
			<polygon class="st23" points="365,115.2 364.8,116 366.6,117 366.6,113.4 			"/>
			<polygon class="st24" points="366.6,117 368.8,115.9 366.6,114.5 			"/>
		</g>
		<polygon class="st15" points="150.9,96.4 150.9,111.6 195.3,137.2 202.5,132.9 202.6,126.2 		"/>
		<polygon class="st16" points="215.5,118.9 215.4,133.6 202.3,141.1 202.6,126.2 		"/>
		<polygon class="st26" points="152.7,99.8 152.6,109.8 199.9,137.3 200,127.3 		"/>
		<polygon class="st16" points="161.4,104.9 152.6,109.7 152.6,99.7 		"/>
		<polygon class="st4" points="157.4,111.8 156,111.1 156,102.3 157.4,103 		"/>
		<polygon class="st17" points="157.4,111.9 157.8,111.6 157.8,102.7 157.4,103 		"/>
		<polygon class="st18" points="156,102.3 156.4,102 157.8,102.7 157.4,103 		"/>
		<polygon class="st16" points="195.2,134.7 195.2,137.2 201.9,133.4 199.9,132.1 199.9,132.1 		"/>
		<polygon class="st1" points="196.1,135.4 196.1,136.8 201.2,139.8 206.5,136.9 206.6,135.4 201.4,132.5 		"/>
		<polygon class="st15" points="196.1,135.4 196.1,140.9 201.2,143.7 201.2,138.3 		"/>
		<polygon class="st16" points="206.6,135.4 206.5,140.6 201.2,143.7 201.2,138.3 		"/>
		<polygon class="st15" points="199.9,132.1 199.9,133.4 202.5,134.7 202.5,129.5 		"/>
		<polygon class="st16" points="202.5,134.7 205.8,132.9 202.5,131.2 		"/>
		<g>
			<path class="st4" d="M217.9,405.8c-0.1,0-0.1,0-0.2,0l-7.7-4.6c-0.2-0.1-0.2-0.3-0.1-0.5s0.3-0.2,0.5-0.1l7.7,4.6
				c0.2,0.1,0.2,0.3,0.1,0.5C218.1,405.8,218,405.8,217.9,405.8z"/>
		</g>
		<g>
			<path class="st4" d="M237,417.4c-0.1,0-0.1,0-0.2-0.1l-4.4-2.7c-0.2-0.1-0.2-0.3-0.1-0.5s0.3-0.2,0.5-0.1l4.4,2.7
				c0.2,0.1,0.2,0.3,0.1,0.5C237.3,417.4,237.1,417.4,237,417.4z"/>
		</g>
		<g>
			<path class="st4" d="M250.4,408.8c-0.1,0-0.1,0-0.2,0l-4.9-2.9c-0.2-0.1-0.2-0.3-0.1-0.5c0.1-0.2,0.3-0.2,0.5-0.1l4.9,2.9
				c0.2,0.1,0.2,0.3,0.1,0.5C250.7,408.7,250.5,408.8,250.4,408.8z"/>
		</g>
		<g>
			<path class="st4" d="M278.1,409.2c-0.1,0-0.1,0-0.2,0l-5.2-3c-0.2-0.1-0.2-0.3-0.1-0.5s0.3-0.2,0.5-0.1l5.2,3
				c0.2,0.1,0.2,0.3,0.1,0.5C278.3,409.2,278.2,409.2,278.1,409.2z"/>
		</g>
		<g>
			<line class="st27" x1="271.1" y1="389.1" x2="275.5" y2="391.7"/>
			<path class="st4" d="M275.5,392c-0.1,0-0.1,0-0.2,0l-4.4-2.6c-0.2-0.1-0.2-0.3-0.1-0.4c0.1-0.2,0.3-0.2,0.4-0.1l4.4,2.6
				c0.2,0.1,0.2,0.3,0.1,0.4C275.7,392,275.6,392,275.5,392z"/>
		</g>
		<g>
			<path class="st4" d="M267.6,370.9c-0.1,0-0.1,0-0.2,0l-5.7-3.3c-0.2-0.1-0.2-0.3-0.1-0.5s0.3-0.2,0.5-0.1l5.7,3.3
				c0.2,0.1,0.2,0.3,0.1,0.5C267.8,370.8,267.7,370.9,267.6,370.9z"/>
		</g>
		<g>
			<path class="st4" d="M282.5,379.4c-0.1,0-0.1,0-0.2,0l-5.7-3.3c-0.2-0.1-0.2-0.3-0.1-0.5s0.3-0.2,0.5-0.1l5.7,3.3
				c0.2,0.1,0.2,0.3,0.1,0.5C282.7,379.4,282.6,379.4,282.5,379.4z"/>
		</g>
		<g>
			<path class="st4" d="M296.9,388.2c-0.1,0-0.1,0-0.2,0l-6.4-3.8c-0.2-0.1-0.2-0.3-0.1-0.5s0.3-0.2,0.5-0.1l6.4,3.8
				c0.2,0.1,0.2,0.3,0.1,0.5C297.2,388.2,297.1,388.2,296.9,388.2z"/>
		</g>
		<g>
			<path class="st4" d="M311.7,396.5c-0.1,0-0.1,0-0.2-0.1l-6.5-4c-0.2-0.1-0.2-0.3-0.1-0.5s0.3-0.2,0.5-0.1l6.5,4
				c0.2,0.1,0.2,0.3,0.1,0.5C312,396.5,311.8,396.5,311.7,396.5z"/>
		</g>
		<g>
			<path class="st4" d="M326.1,404.8c-0.1,0-0.1,0-0.2,0l-5.9-3.5c-0.2-0.1-0.2-0.3-0.1-0.5s0.3-0.2,0.5-0.1l5.9,3.5
				c0.2,0.1,0.2,0.3,0.1,0.5C326.3,404.8,326.2,404.8,326.1,404.8z"/>
		</g>
		<g>
			<path class="st4" d="M341,413.5c-0.1,0-0.1,0-0.2-0.1l-5.5-3.3c-0.2-0.1-0.2-0.3-0.1-0.5s0.3-0.2,0.5-0.1l5.5,3.3
				c0.2,0.1,0.2,0.3,0.1,0.5C341.2,413.5,341.1,413.5,341,413.5z"/>
		</g>
		<g>
			<path class="st4" d="M355.5,421.7c-0.1,0-0.1,0-0.2,0l-4.3-2.6c-0.2-0.1-0.2-0.3-0.1-0.5s0.3-0.2,0.5-0.1l4.3,2.6
				c0.2,0.1,0.2,0.3,0.1,0.5C355.7,421.6,355.6,421.7,355.5,421.7z"/>
		</g>
		<g>
			<path class="st4" d="M370.3,430.3c-0.1,0-0.1,0-0.2,0l-5.2-3.1c-0.2-0.1-0.2-0.3-0.1-0.5s0.3-0.2,0.5-0.1l5.2,3.1
				c0.2,0.1,0.2,0.3,0.1,0.5C370.5,430.3,370.4,430.3,370.3,430.3z"/>
		</g>
		<g>
			<path class="st4" d="M385.8,439.9c-0.1,0-0.1,0-0.2-0.1l-5.6-3.4c-0.2-0.1-0.2-0.3-0.1-0.5s0.3-0.2,0.5-0.1l5.6,3.4
				c0.2,0.1,0.2,0.3,0.1,0.5C386,439.9,385.9,439.9,385.8,439.9z"/>
		</g>
		<g>
			<path class="st4" d="M402.7,449.7c-0.1,0-0.1,0-0.2,0l-5.4-3.2c-0.2-0.1-0.2-0.3-0.1-0.5s0.3-0.2,0.5-0.1l5.4,3.2
				c0.2,0.1,0.2,0.3,0.1,0.5C403,449.7,402.8,449.7,402.7,449.7z"/>
		</g>
		<g>
			<path class="st4" d="M417.9,459c-0.1,0-0.1,0-0.2,0l-5.1-3c-0.2-0.1-0.2-0.3-0.1-0.5s0.3-0.2,0.5-0.1l5.1,3
				c0.2,0.1,0.2,0.3,0.1,0.5C418.2,458.9,418.1,459,417.9,459z"/>
		</g>
		<g>
			<path class="st4" d="M435.2,469.3c-0.1,0-0.1,0-0.2,0l-5-3c-0.2-0.1-0.2-0.3-0.1-0.5s0.3-0.2,0.5-0.1l5,3
				c0.2,0.1,0.2,0.3,0.1,0.5C435.4,469.2,435.3,469.3,435.2,469.3z"/>
		</g>
		<g>
			<path class="st4" d="M455.3,480.9c-0.1,0-0.1,0-0.2-0.1l-6.5-4c-0.2-0.1-0.2-0.3-0.1-0.5s0.3-0.2,0.5-0.1l6.5,4
				c0.2,0.1,0.2,0.3,0.1,0.5C455.5,480.8,455.4,480.9,455.3,480.9z"/>
		</g>
		<g>
			<line class="st27" x1="422" y1="476.2" x2="428.4" y2="480"/>
			<path class="st4" d="M428.4,480.3c-0.1,0-0.1,0-0.2,0l-6.5-3.8c-0.2-0.1-0.2-0.3-0.1-0.4c0.1-0.2,0.3-0.2,0.4-0.1l6.5,3.8
				c0.2,0.1,0.2,0.3,0.1,0.4C428.7,480.3,428.6,480.3,428.4,480.3z"/>
		</g>
		<g>
			<line class="st27" x1="406.2" y1="467.3" x2="410.8" y2="470.1"/>
			<path class="st4" d="M410.8,470.4c-0.1,0-0.1,0-0.2,0l-4.6-2.8c-0.2-0.1-0.2-0.3-0.1-0.4c0.1-0.2,0.3-0.2,0.4-0.1l4.6,2.8
				c0.2,0.1,0.2,0.3,0.1,0.4C411,470.3,410.9,470.4,410.8,470.4z"/>
		</g>
		<g>
			<line class="st27" x1="390.6" y1="458.1" x2="395.3" y2="460.9"/>
			<path class="st4" d="M395.3,461.2c-0.1,0-0.1,0-0.2,0l-4.7-2.8c-0.2-0.1-0.2-0.3-0.1-0.4c0.1-0.2,0.3-0.2,0.4-0.1l4.7,2.8
				c0.2,0.1,0.2,0.3,0.1,0.4C395.5,461.1,395.4,461.2,395.3,461.2z"/>
		</g>
		<g>
			<line class="st27" x1="375.4" y1="449" x2="379.5" y2="451.4"/>
			<path class="st4" d="M379.5,451.7c-0.1,0-0.1,0-0.2,0l-4.1-2.4c-0.2-0.1-0.2-0.3-0.1-0.4c0.1-0.2,0.3-0.2,0.4-0.1l4.1,2.4
				c0.2,0.1,0.2,0.3,0.1,0.4C379.7,451.7,379.6,451.7,379.5,451.7z"/>
		</g>
		<g>
			<line class="st27" x1="359.8" y1="439.6" x2="365.1" y2="442.8"/>
			<path class="st4" d="M365.1,443.1c-0.1,0-0.1,0-0.2,0l-5.3-3.2c-0.2-0.1-0.2-0.3-0.1-0.4s0.3-0.2,0.4-0.1l5.3,3.2
				c0.2,0.1,0.2,0.3,0.1,0.4C365.3,443,365.2,443.1,365.1,443.1z"/>
		</g>
		<g>
			<line class="st27" x1="345.8" y1="431.5" x2="351" y2="434.7"/>
			<path class="st4" d="M351,435c-0.1,0-0.1,0-0.2,0l-5.2-3.2c-0.2-0.1-0.2-0.3-0.1-0.4c0.1-0.2,0.3-0.2,0.4-0.1l5.2,3.2
				c0.2,0.1,0.2,0.3,0.1,0.4C351.2,435,351.1,435,351,435z"/>
		</g>
		<g>
			<path class="st4" d="M338.2,443.1c-0.1,0-0.1,0-0.2,0l-5-3c-0.2-0.1-0.2-0.3-0.1-0.5s0.3-0.2,0.5-0.1l5,3
				c0.2,0.1,0.2,0.3,0.1,0.5C338.5,443.1,338.3,443.1,338.2,443.1z"/>
		</g>
		<g>
			<path class="st4" d="M352.2,451.7c-0.1,0-0.1,0-0.2,0l-3.9-2.3c-0.2-0.1-0.2-0.3-0.1-0.5s0.3-0.2,0.5-0.1l3.9,2.3
				c0.2,0.1,0.2,0.3,0.1,0.5C352.5,451.6,352.3,451.7,352.2,451.7z"/>
		</g>
		<g>
			<path class="st4" d="M368.4,460.9c-0.1,0-0.1,0-0.2-0.1l-4.6-2.7c-0.2-0.1-0.2-0.3-0.1-0.5s0.3-0.2,0.5-0.1l4.6,2.7
				c0.2,0.1,0.2,0.3,0.1,0.5C368.7,460.8,368.6,460.9,368.4,460.9z"/>
		</g>
		<g>
			<path class="st4" d="M384.4,470.5c-0.1,0-0.1,0-0.2-0.1l-5.3-3.2c-0.2-0.1-0.2-0.3-0.1-0.5s0.3-0.2,0.5-0.1l5.3,3.2
				c0.2,0.1,0.2,0.3,0.1,0.5C384.7,470.5,384.6,470.5,384.4,470.5z"/>
		</g>
		<g>
			<path class="st4" d="M399.6,479.7c-0.1,0-0.1,0-0.2,0l-4.6-2.7c-0.2-0.1-0.2-0.3-0.1-0.5s0.3-0.2,0.5-0.1l4.6,2.7
				c0.2,0.1,0.2,0.3,0.1,0.5C399.9,479.7,399.7,479.7,399.6,479.7z"/>
		</g>
		<g>
			<path class="st4" d="M369.7,478.4c-0.1,0-0.1,0-0.2,0l-6.9-4.1c-0.2-0.1-0.2-0.3-0.1-0.5s0.3-0.2,0.5-0.1l6.9,4.1
				c0.2,0.1,0.2,0.3,0.1,0.5C370,478.3,369.8,478.4,369.7,478.4z"/>
		</g>
		<g>
			<path class="st4" d="M357.3,487.6c-0.1,0-0.1,0-0.2,0l-6.4-3.7c-0.2-0.1-0.2-0.3-0.1-0.5s0.3-0.2,0.5-0.1l6.4,3.7
				c0.2,0.1,0.2,0.3,0.1,0.5C357.6,487.5,357.4,487.6,357.3,487.6z"/>
		</g>
		<g>
			<path class="st4" d="M374.2,497c-0.1,0-0.1,0-0.2,0l-6.8-4c-0.2-0.1-0.2-0.3-0.1-0.5s0.3-0.2,0.5-0.1l6.8,4
				c0.2,0.1,0.2,0.3,0.1,0.5C374.5,496.9,374.3,497,374.2,497z"/>
		</g>
		<g>
			<path class="st4" d="M388.7,506.3c-0.1,0-0.1,0-0.2,0l-6-3.5c-0.2-0.1-0.2-0.3-0.1-0.5s0.3-0.2,0.5-0.1l6,3.5
				c0.2,0.1,0.2,0.3,0.1,0.5C389,506.3,388.8,506.3,388.7,506.3z"/>
		</g>
		<g>
			<path class="st4" d="M405.8,516.7c-0.1,0-0.1,0-0.2,0l-6.2-3.6c-0.2-0.1-0.2-0.3-0.1-0.5s0.3-0.2,0.5-0.1l6.2,3.6
				c0.2,0.1,0.2,0.3,0.1,0.5C406.1,516.7,406,516.7,405.8,516.7z"/>
		</g>
		<g>
			<path class="st4" d="M352.7,468.2c-0.1,0-0.1,0-0.2-0.1l-5.8-3.5c-0.2-0.1-0.2-0.3-0.1-0.5s0.3-0.2,0.5-0.1l5.8,3.5
				c0.2,0.1,0.2,0.3,0.1,0.5C353,468.1,352.9,468.2,352.7,468.2z"/>
		</g>
		<g>
			<path class="st4" d="M338.3,459.5c-0.1,0-0.1,0-0.2,0l-6.2-3.7c-0.2-0.1-0.2-0.3-0.1-0.5s0.3-0.2,0.5-0.1l6.2,3.7
				c0.2,0.1,0.2,0.3,0.1,0.5C338.5,459.5,338.4,459.5,338.3,459.5z"/>
		</g>
		<g>
			<path class="st4" d="M415,504.8c-0.1,0-0.1,0-0.2,0l-8.2-4.9c-0.2-0.1-0.2-0.3-0.1-0.5s0.3-0.2,0.5-0.1l8.2,4.9
				c0.2,0.1,0.2,0.3,0.1,0.5C415.2,504.7,415.1,504.8,415,504.8z"/>
		</g>
		<g>
			<path class="st4" d="M392.2,491.2c-0.1,0-0.1,0-0.2-0.1l-12-7.3c-0.2-0.1-0.2-0.3-0.1-0.5s0.3-0.2,0.5-0.1l12,7.3
				c0.2,0.1,0.2,0.3,0.1,0.5C392.4,491.1,392.3,491.2,392.2,491.2z"/>
		</g>
		<line class="st3" x1="412.1" y1="486.3" x2="424.8" y2="494.2"/>
		<g>
			<line class="st27" x1="286" y1="397.7" x2="290.6" y2="400.5"/>
			<path class="st4" d="M290.6,400.8c-0.1,0-0.1,0-0.2,0l-4.7-2.7c-0.2-0.1-0.2-0.3-0.1-0.4c0.1-0.2,0.3-0.2,0.4-0.1l4.7,2.7
				c0.2,0.1,0.2,0.3,0.1,0.4C290.9,400.7,290.8,400.8,290.6,400.8z"/>
		</g>
		<g>
			<line class="st27" x1="301.3" y1="406.3" x2="306.1" y2="409.2"/>
			<path class="st4" d="M306.1,409.5c-0.1,0-0.1,0-0.2,0l-4.8-2.8c-0.2-0.1-0.2-0.3-0.1-0.4s0.3-0.2,0.4-0.1l4.8,2.8
				c0.2,0.1,0.2,0.3,0.1,0.4C306.3,409.4,306.2,409.5,306.1,409.5z"/>
		</g>
		<g>
			<line class="st27" x1="315.6" y1="414.3" x2="320.1" y2="416.9"/>
			<path class="st4" d="M320.1,417.2c-0.1,0-0.1,0-0.2,0l-4.5-2.6c-0.2-0.1-0.2-0.3-0.1-0.4s0.3-0.2,0.4-0.1l4.5,2.6
				c0.2,0.1,0.2,0.3,0.1,0.4C320.3,417.2,320.2,417.2,320.1,417.2z"/>
		</g>
		<g>
			<path class="st4" d="M307,425.7c-0.1,0-0.1,0-0.2,0l-5.2-3c-0.2-0.1-0.2-0.3-0.1-0.5s0.3-0.2,0.5-0.1l5.2,3
				c0.2,0.1,0.2,0.3,0.1,0.5C307.2,425.7,307.1,425.7,307,425.7z"/>
		</g>
		<g>
			<path class="st4" d="M295,435.2c-0.1,0-0.1,0-0.2,0l-6.3-3.7c-0.2-0.1-0.2-0.3-0.1-0.5s0.3-0.2,0.5-0.1l6.3,3.7
				c0.2,0.1,0.2,0.3,0.1,0.5C295.2,435.2,295.1,435.2,295,435.2z"/>
		</g>
		<g>
			<path class="st4" d="M309.1,443.1c-0.1,0-0.1,0-0.2-0.1l-6.8-4.1c-0.2-0.1-0.2-0.3-0.1-0.5s0.3-0.2,0.5-0.1l6.8,4.1
				c0.2,0.1,0.2,0.3,0.1,0.5C309.4,443.1,309.2,443.1,309.1,443.1z"/>
		</g>
		<g>
			<path class="st4" d="M324.7,451.4c-0.1,0-0.1,0-0.2-0.1l-7.4-4.4c-0.2-0.1-0.2-0.3-0.1-0.5s0.3-0.2,0.5-0.1l7.4,4.4
				c0.2,0.1,0.2,0.3,0.1,0.5C325,451.4,324.8,451.4,324.7,451.4z"/>
		</g>
		<g>
			<line class="st27" x1="330.9" y1="422.9" x2="335.5" y2="425.5"/>
			<path class="st4" d="M335.5,425.9c-0.1,0-0.1,0-0.2,0l-4.5-2.7c-0.2-0.1-0.2-0.3-0.1-0.4c0.1-0.2,0.3-0.2,0.4-0.1l4.5,2.7
				c0.2,0.1,0.2,0.3,0.1,0.4C335.7,425.8,335.6,425.9,335.5,425.9z"/>
		</g>
		<g>
			<path class="st4" d="M322.4,434.2c-0.1,0-0.1,0-0.2,0l-4.8-2.8c-0.2-0.1-0.2-0.3-0.1-0.5s0.3-0.2,0.5-0.1l4.8,2.8
				c0.2,0.1,0.2,0.3,0.1,0.5C322.6,434.1,322.5,434.2,322.4,434.2z"/>
		</g>
		<g>
			<path class="st4" d="M292.7,417.8c-0.1,0-0.1,0-0.2-0.1l-4.4-2.6c-0.2-0.1-0.2-0.3-0.1-0.5s0.3-0.2,0.5-0.1l4.4,2.6
				c0.2,0.1,0.2,0.3,0.1,0.5C292.9,417.7,292.8,417.8,292.7,417.8z"/>
		</g>
		<g>
			<path class="st4" d="M279.3,426.5c-0.1,0-0.1,0-0.2,0l-5.1-3c-0.2-0.1-0.2-0.3-0.1-0.5s0.3-0.2,0.5-0.1l5.1,3
				c0.2,0.1,0.2,0.3,0.1,0.5C279.6,426.4,279.4,426.5,279.3,426.5z"/>
		</g>
		<g>
			<path class="st4" d="M264.2,417.6c-0.1,0-0.1,0-0.2-0.1l-5-3.1c-0.2-0.1-0.2-0.3-0.1-0.5s0.3-0.2,0.5-0.1l5,3.1
				c0.2,0.1,0.2,0.3,0.1,0.5C264.5,417.6,264.4,417.6,264.2,417.6z"/>
		</g>
		<g>
			<path class="st4" d="M251.2,426.4c-0.1,0-0.1,0-0.2-0.1l-4.5-2.8c-0.2-0.1-0.2-0.3-0.1-0.5c0.1-0.2,0.3-0.2,0.5-0.1l4.5,2.8
				c0.2,0.1,0.2,0.3,0.1,0.5C251.4,426.3,251.3,426.4,251.2,426.4z"/>
		</g>
		<g>
			<path class="st4" d="M231.7,397.9c-0.1,0-0.1,0-0.2,0l-8.8-5.1c-0.2-0.1-0.2-0.3-0.1-0.5c0.1-0.2,0.3-0.2,0.5-0.1l8.8,5.1
				c0.2,0.1,0.2,0.3,0.1,0.5C231.9,397.8,231.8,397.9,231.7,397.9z"/>
		</g>
		<g>
			<path class="st4" d="M247.3,390.6c-0.1,0-0.1,0-0.2,0l-10.7-6.3c-0.2-0.1-0.2-0.3-0.1-0.5s0.3-0.2,0.5-0.1l10.7,6.3
				c0.2,0.1,0.2,0.3,0.1,0.5C247.6,390.6,247.5,390.6,247.3,390.6z"/>
		</g>
		<g>
			<line class="st27" x1="248.9" y1="376.3" x2="255.3" y2="380.1"/>
			<path class="st4" d="M255.3,380.4c-0.1,0-0.1,0-0.2,0l-6.4-3.8c-0.2-0.1-0.2-0.3-0.1-0.4c0.1-0.2,0.3-0.2,0.4-0.1l6.4,3.8
				c0.2,0.1,0.2,0.3,0.1,0.4C255.6,380.3,255.5,380.4,255.3,380.4z"/>
		</g>
		<g>
			<path class="st4" d="M162.9,397.2c-0.1,0-0.2-0.1-0.3-0.2c-0.1-0.2,0-0.4,0.1-0.5l90.1-53.3c0,0,5-3.3,10.8,0.5
				c7.5,4.8,46.6,28,47,28.2c0.2,0.1,0.2,0.3,0.1,0.5s-0.3,0.2-0.5,0.1c-0.4-0.2-39.5-23.4-47-28.2c-5.3-3.5-10-0.5-10-0.5
				l-90.1,53.3C163,397.1,163,397.2,162.9,397.2z"/>
		</g>
		<g>
			<path class="st4" d="M385.3,569.5c-3.6,0-6.3-1.2-7.6-1.7l-0.3-0.1c-1.9-0.9-47.3-26.7-49.2-27.8c-0.2-0.1-0.2-0.3-0.1-0.5
				s0.3-0.2,0.5-0.1c0.5,0.3,47.3,26.9,49.2,27.8l0.3,0.1c2.3,1,8.4,3.6,15.9-0.8c7.9-4.7,64.6-37.6,65.2-37.9
				c0.2-0.1,0.4,0,0.5,0.1c0.1,0.2,0,0.4-0.1,0.5c-0.6,0.3-57.3,33.2-65.2,37.9C391,568.9,388,569.5,385.3,569.5z"/>
		</g>
	</g>
</g>
</svg>
